<svg xmlns="http://www.w3.org/2000/svg" width="1671" height="375" viewBox="0 0 1671 375">
<g>
<path d="M 999.43,73.91 L 1002.55,74.00 L 1004.06,74.10 L 1007.05,74.34 L 1008.44,74.52 L 1011.13,74.92 L 1012.31,75.18 L 1014.55,75.73 L 1015.44,76.06 L 1021.69,79.04 L 1025.69,81.59 L 1027.57,83.12 L 1031.26,86.36 L 1032.96,88.21 L 1036.26,92.08 L 1037.75,94.23 L 1039.79,97.30 L 1040.98,99.22 L 1041.46,100.04 L 1042.32,101.59 L 1042.59,102.16 L 1043.00,103.14 L 1043.00,103.35 L 1043.33,104.63 L 1043.80,105.38 L 1044.11,105.57 L 1044.54,105.70 L 1044.71,105.59 L 1044.72,105.54 L 1045.43,107.72 L 1045.68,108.69 L 1045.67,108.67 L 1045.56,108.48 L 1045.32,108.20 L 1045.20,108.20 L 1044.96,108.30 L 1044.84,108.51 L 1044.59,109.74 L 1044.46,111.20 L 1044.41,112.17 L 1044.32,114.23 L 1044.30,115.40 L 1044.26,117.79 L 1044.26,119.02 L 1044.27,121.48 L 1044.29,122.65 L 1044.35,124.91 L 1044.39,125.87 L 1044.50,127.65 L 1044.57,128.28 L 1044.72,129.33 L 1044.82,129.49 L 1045.07,129.79 L 1045.19,129.79 L 1045.43,129.70 L 1045.55,129.52 L 1045.77,129.06 L 1045.85,128.81 L 1045.66,129.79 L 1044.77,132.91 L 1044.73,132.65 L 1044.63,132.28 L 1044.52,132.17 L 1044.26,132.00 L 1044.07,132.00 L 1043.31,132.58 L 1043.00,133.43 L 1043.00,133.97 L 1042.52,136.02 L 1041.79,137.86 L 1041.29,138.89 L 1040.20,140.97 L 1039.59,141.97 L 1038.35,143.89 L 1037.73,144.66 L 1034.63,148.35 L 1032.60,150.61 L 1031.60,151.63 L 1029.62,153.60 L 1028.63,154.49 L 1026.67,156.19 L 1025.70,156.95 L 1021.82,159.72 L 1019.88,160.73 L 1015.99,162.53 L 1014.00,163.10 L 1010.23,164.41 L 1009.10,164.91 L 1008.63,165.14 L 1007.77,165.60 L 1007.50,165.80 L 1006.70,166.38 L 1006.50,166.56 L 1006.34,166.74 L 1003.88,167.17 L 1002.72,167.31 L 1000.56,167.62 L 999.52,167.78 L 997.73,168.10 L 996.90,168.25 L 995.68,168.55 L 995.23,168.72 L 995.35,168.52 L 995.42,168.50 L 996.20,168.30 L 997.00,168.11 L 997.51,167.99 L 999.76,167.46 L 1001.00,167.19 L 1005.50,166.18 L 999.68,166.34 L 993.86,166.50 L 990.33,174.50 L 988.76,178.16 L 987.65,180.85 L 987.11,182.21 L 986.04,184.91 L 985.57,186.15 L 984.68,188.54 L 984.34,189.50 L 982.06,195.62 L 981.30,197.56 L 980.95,198.39 L 980.30,199.95 L 980.05,200.50 L 976.34,208.81 L 975.28,211.32 L 974.80,212.48 L 973.88,214.73 L 973.49,215.74 L 972.74,217.70 L 972.43,218.55 L 971.86,220.18 L 971.65,220.85 L 971.28,222.11 L 971.17,222.59 L 971.00,223.44 L 971.00,223.70 L 971.05,224.51 L 971.12,224.73 L 971.29,225.03 L 971.40,224.92 L 971.71,224.26 L 972.14,223.29 L 972.45,222.56 L 973.13,220.94 L 973.56,219.91 L 974.47,217.72 L 974.99,216.44 L 976.10,213.76 L 976.71,212.27 L 977.98,209.17 L 978.67,207.50 L 980.06,204.07 L 980.80,202.25 L 982.30,198.57 L 983.07,196.65 L 985.36,191.05 L 986.84,187.49 L 987.54,185.81 L 988.91,182.55 L 989.55,181.06 L 989.69,180.73 L 989.67,180.79 L 988.66,183.23 L 988.15,184.48 L 987.04,187.19 L 985.90,189.96 L 983.34,196.23 L 982.02,199.47 L 979.15,206.56 L 977.67,210.19 L 974.55,217.93 L 970.84,227.13 L 971.00,226.65 L 971.00,226.55 L 970.71,226.16 L 970.27,226.00 L 970.00,226.00 L 969.29,226.43 L 969.00,227.07 L 969.00,227.47 L 968.86,228.30 L 968.63,229.04 L 968.46,229.47 L 967.67,231.32 L 967.17,232.22 L 966.16,234.28 L 965.27,236.27 L 964.76,237.47 L 963.71,240.00 L 963.17,241.36 L 962.08,244.12 L 961.56,245.50 L 959.99,249.62 L 958.98,252.27 L 958.52,253.44 L 957.65,255.68 L 957.30,256.55 L 956.68,258.09 L 956.50,258.50 L 955.77,260.22 L 955.10,261.77 L 954.71,262.67 L 953.03,266.57 L 952.20,268.50 L 949.70,274.77 L 948.96,276.81 L 948.66,277.70 L 948.10,279.38 L 947.93,280.00 L 946.79,283.46 L 946.42,284.38 L 946.25,284.73 L 945.95,285.32 L 945.83,285.45 L 945.24,286.65 L 945.00,287.70 L 945.00,288.20 L 944.74,289.47 L 944.35,290.00 L 944.11,290.00 L 943.31,290.68 L 942.80,291.68 L 942.64,292.32 L 941.03,295.79 L 939.35,297.76 L 938.28,298.54 L 936.01,299.93 L 934.71,300.35 L 932.03,301.00 L 930.61,301.00 L 927.28,300.70 L 925.37,300.16 L 924.53,299.71 L 922.91,298.67 L 922.17,297.94 L 920.70,296.32 L 919.98,295.27 L 917.93,292.39 L 917.32,291.59 L 917.07,291.27 L 916.62,290.72 L 916.48,290.57 L 915.69,289.60 L 914.85,288.49 L 914.31,287.76 L 913.17,286.19 L 912.53,285.30 L 911.22,283.46 L 910.54,282.50 L 908.58,279.74 L 907.40,278.09 L 906.90,277.41 L 905.98,276.16 L 905.66,275.75 L 905.13,275.07 L 905.05,275.00 L 904.49,274.39 L 903.94,273.71 L 903.59,273.27 L 902.04,271.25 L 901.12,270.00 L 899.24,267.41 L 898.33,266.11 L 896.56,263.56 L 895.88,262.52 L 893.47,259.09 L 892.66,258.04 L 892.30,257.59 L 891.62,256.77 L 891.36,256.50 L 890.18,255.09 L 889.06,253.64 L 888.38,252.74 L 886.96,250.82 L 886.20,249.76 L 884.65,247.60 L 883.88,246.50 L 878.64,239.08 L 875.09,234.16 L 873.43,231.89 L 871.80,229.67 L 871.03,228.65 L 869.54,226.65 L 868.87,225.76 L 867.57,224.06 L 867.01,223.35 L 865.96,222.01 L 865.54,221.50 L 864.30,219.90 L 863.28,218.54 L 862.72,217.77 L 860.40,214.51 L 859.38,213.00 L 857.89,210.82 L 856.97,209.51 L 856.58,208.97 L 855.84,207.97 L 855.58,207.63 L 855.13,207.07 L 855.04,207.00 L 854.66,206.59 L 854.23,206.05 L 853.91,205.63 L 853.19,204.68 L 852.71,204.04 L 851.67,202.62 L 851.01,201.71 L 849.60,199.75 L 848.74,198.55 L 846.90,196.00 L 845.81,194.47 L 843.52,191.25 L 842.18,189.37 L 839.37,185.43 L 837.76,183.17 L 833.68,177.58 L 832.40,175.89 L 831.86,175.19 L 830.86,173.91 L 830.52,173.50 L 829.26,171.90 L 828.23,170.54 L 827.67,169.77 L 825.36,166.51 L 824.35,165.00 L 822.87,162.82 L 821.96,161.51 L 821.57,160.97 L 820.84,159.97 L 820.57,159.63 L 820.12,159.07 L 820.04,159.00 L 819.53,158.44 L 818.97,157.74 L 818.61,157.27 L 816.99,155.10 L 816.07,153.81 L 813.70,150.78 L 812.31,149.35 L 811.71,148.93 L 810.57,148.29 L 810.09,148.26 L 809.20,148.40 L 808.84,148.76 L 808.30,149.62 L 807.80,150.61 L 807.51,151.26 L 806.21,154.23 L 805.55,155.91 L 804.24,159.29 L 803.77,160.66 L 803.34,161.95 L 803.21,162.43 L 803.00,163.27 L 803.00,163.45 L 802.77,164.34 L 802.41,165.33 L 802.15,165.97 L 801.58,167.34 L 801.24,168.11 L 800.51,169.69 L 800.12,170.51 L 798.79,173.47 L 797.80,175.82 L 797.29,177.09 L 796.28,179.66 L 795.81,180.92 L 794.91,183.40 L 794.54,184.50 L 793.42,187.76 L 792.71,189.83 L 792.39,190.74 L 791.78,192.45 L 791.55,193.09 L 791.13,194.22 L 791.02,194.50 L 789.91,197.16 L 788.95,199.42 L 788.42,200.64 L 787.35,203.13 L 786.83,204.30 L 785.83,206.58 L 785.42,207.50 L 784.69,209.26 L 784.06,210.87 L 783.70,211.82 L 782.18,215.94 L 781.46,218.00 L 779.23,224.18 L 778.53,226.00 L 778.24,226.74 L 777.70,228.09 L 777.52,228.50 L 776.20,231.53 L 775.27,233.76 L 774.79,234.93 L 772.88,239.70 L 772.02,241.94 L 771.19,244.13 L 770.82,245.11 L 770.14,247.00 L 769.87,247.78 L 769.38,249.22 L 769.23,249.72 L 769.00,250.57 L 769.00,250.72 L 769.30,251.57 L 769.78,252.39 L 770.12,252.90 L 771.77,255.11 L 772.82,256.27 L 776.39,260.44 L 778.29,262.94 L 779.09,264.20 L 780.60,266.74 L 781.31,268.17 L 782.71,271.18 L 783.46,273.00 L 784.85,276.73 L 785.47,278.96 L 785.66,280.15 L 785.97,282.62 L 786.04,284.16 L 786.10,285.75 L 786.11,286.67 L 786.13,288.57 L 786.13,289.66 L 786.06,293.76 L 785.94,296.29 L 785.85,297.38 L 785.67,299.41 L 785.56,300.15 L 785.32,301.41 L 785.20,301.66 L 784.62,302.84 L 784.08,303.99 L 783.75,304.69 L 782.31,307.78 L 781.57,309.40 L 777.91,315.74 L 774.88,319.63 L 773.09,321.38 L 769.34,324.74 L 767.21,326.21 L 762.79,328.99 L 760.35,330.15 L 757.03,331.64 L 754.93,332.52 L 754.02,332.87 L 752.29,333.50 L 751.64,333.70 L 750.50,334.00 L 750.23,334.00 L 748.45,334.46 L 747.30,335.13 L 746.95,335.56 L 746.46,336.17 L 746.36,336.36 L 746.31,336.51 L 746.27,336.52 L 744.21,336.74 L 739.81,336.85 L 737.62,336.85 L 733.70,336.55 L 733.68,336.48 L 733.36,335.94 L 733.00,335.50 L 731.53,334.44 L 730.29,334.00 L 729.73,334.00 L 727.69,333.68 L 726.01,333.16 L 725.06,332.78 L 723.10,331.93 L 722.04,331.41 L 719.90,330.30 L 718.81,329.67 L 714.40,326.98 L 712.41,325.51 L 710.46,324.02 L 709.60,323.28 L 707.97,321.81 L 707.30,321.11 L 705.26,318.88 L 704.06,317.52 L 703.58,316.95 L 702.72,315.89 L 702.45,315.53 L 702.02,314.91 L 702.02,314.82 L 701.64,313.95 L 701.09,313.18 L 700.75,312.82 L 699.87,311.72 L 699.24,310.78 L 698.92,310.24 L 697.63,307.92 L 697.04,306.67 L 695.95,304.17 L 695.59,303.09 L 695.26,302.04 L 695.16,301.59 L 695.00,300.77 L 695.00,300.46 L 694.66,298.60 L 694.16,297.60 L 693.84,297.40 L 693.32,297.32 L 693.12,297.58 L 693.09,297.85 L 693.09,297.93 L 693.06,297.80 L 692.60,294.51 L 692.61,294.53 L 692.86,295.00 L 693.00,295.00 L 693.39,294.53 L 693.62,293.79 L 693.71,293.25 L 693.87,292.06 L 693.92,291.34 L 694.00,289.83 L 694.00,289.00 L 693.92,286.66 L 693.80,285.29 L 693.71,284.75 L 693.51,283.77 L 693.39,283.47 L 693.14,283.00 L 693.00,283.00 L 692.61,283.47 L 692.60,283.49 L 692.69,282.59 L 693.10,280.34 L 693.10,280.36 L 693.23,280.70 L 693.35,280.74 L 693.64,280.73 L 693.84,280.60 L 694.66,279.39 L 695.00,278.14 L 695.00,277.48 L 695.17,276.23 L 695.45,275.22 L 695.67,274.64 L 696.74,272.10 L 697.55,270.59 L 699.33,267.42 L 700.45,265.68 L 702.81,262.13 L 704.17,260.28 L 707.74,256.27 L 710.73,253.57 L 712.43,252.27 L 715.95,249.72 L 717.82,248.58 L 721.61,246.40 L 723.50,245.52 L 724.96,244.77 L 725.72,244.30 L 725.98,244.10 L 726.40,243.71 L 726.46,243.57 L 726.48,243.33 L 726.32,243.27 L 725.42,243.27 L 725.92,243.08 L 726.80,242.80 L 728.82,242.27 L 729.02,242.23 L 728.85,242.31 L 728.73,242.42 L 728.62,242.62 L 728.79,242.69 L 729.28,242.82 L 729.76,242.86 L 730.88,242.92 L 731.69,242.93 L 734.83,242.69 L 735.64,242.50 L 735.93,242.38 L 736.42,242.14 L 736.50,242.00 L 736.53,241.60 L 736.32,241.39 L 736.12,241.32 L 735.34,241.14 L 737.54,241.00 L 738.32,241.00 L 739.75,240.90 L 740.44,240.84 L 741.62,240.63 L 742.18,240.52 L 743.03,240.21 L 743.83,239.69 L 743.41,240.44 L 743.00,241.32 L 743.00,241.47 L 743.23,241.62 L 743.59,241.49 L 744.45,241.11 L 745.00,240.77 L 746.41,239.52 L 747.00,238.63 L 747.00,238.29 L 747.19,237.39 L 747.48,236.46 L 747.70,235.87 L 748.72,233.23 L 749.38,231.78 L 751.40,226.88 L 752.03,225.22 L 752.29,224.47 L 752.78,223.05 L 752.95,222.50 L 753.79,219.79 L 754.32,218.22 L 754.63,217.41 L 755.30,215.71 L 755.75,214.65 L 756.22,213.55 L 756.50,212.91 L 757.08,211.58 L 757.42,210.81 L 760.90,202.50 L 763.07,196.97 L 763.96,194.52 L 764.82,192.14 L 765.18,191.09 L 765.85,189.09 L 766.10,188.28 L 766.54,186.77 L 766.66,186.25 L 766.83,185.36 L 766.80,185.18 L 766.52,185.40 L 766.14,186.08 L 765.86,186.65 L 765.24,187.96 L 764.85,188.83 L 764.02,190.71 L 763.54,191.83 L 762.53,194.21 L 761.97,195.56 L 760.80,198.36 L 760.18,199.90 L 758.89,203.07 L 758.22,204.77 L 756.84,208.23 L 756.13,210.05 L 752.00,220.49 L 750.71,223.70 L 750.11,225.19 L 748.94,228.08 L 748.41,229.38 L 747.38,231.87 L 746.93,232.95 L 746.09,234.96 L 745.74,235.77 L 745.10,237.23 L 744.87,237.73 L 744.48,238.56 L 744.38,238.71 L 744.05,239.30 L 744.13,239.13 L 744.40,238.51 L 744.55,238.17 L 744.94,237.27 L 745.14,236.78 L 745.63,235.61 L 746.14,234.38 L 747.45,231.17 L 748.15,229.45 L 749.79,225.38 L 750.65,223.24 L 752.58,218.44 L 753.57,215.96 L 755.72,210.56 L 756.82,207.80 L 759.15,201.94 L 760.33,198.97 L 762.78,192.78 L 765.25,186.54 L 770.32,173.64 L 772.85,167.21 L 776.16,158.75 L 772.71,167.60 L 771.62,170.40 L 771.12,171.69 L 770.16,174.17 L 769.74,175.27 L 768.94,177.37 L 768.60,178.25 L 767.97,179.89 L 767.74,180.52 L 767.32,181.65 L 767.19,182.00 L 767.00,182.54 L 767.00,182.57 L 767.21,183.00 L 767.48,183.00 L 767.81,182.68 L 768.14,182.17 L 768.35,181.78 L 768.80,180.92 L 769.07,180.38 L 769.62,179.22 L 769.93,178.54 L 771.23,175.62 L 771.95,173.92 L 773.43,170.38 L 774.18,168.53 L 775.66,164.79 L 776.35,163.00 L 777.67,159.49 L 778.21,157.96 L 778.73,156.48 L 778.94,155.82 L 779.35,154.57 L 779.51,154.04 L 779.79,153.06 L 779.87,152.70 L 780.00,152.05 L 780.00,151.87 L 780.27,150.46 L 780.67,149.70 L 780.93,149.54 L 781.29,149.12 L 781.61,148.60 L 781.80,148.23 L 782.65,146.51 L 783.16,145.34 L 784.24,142.81 L 784.82,141.37 L 786.00,138.38 L 786.58,136.84 L 787.73,133.73 L 788.26,132.26 L 789.25,129.37 L 789.65,128.13 L 790.36,125.82 L 790.56,124.99 L 790.74,124.22 L 790.78,123.94 L 790.84,123.45 L 790.81,123.32 L 790.49,123.05 L 790.13,123.39 L 789.89,123.80 L 789.37,124.78 L 789.06,125.48 L 788.84,126.00 L 789.56,124.11 L 790.11,122.68 L 791.12,120.20 L 791.07,120.57 L 791.17,120.75 L 791.49,121.00 L 791.80,121.00 L 792.21,120.73 L 792.54,120.30 L 792.73,119.99 L 793.50,118.50 L 793.85,117.55 L 795.60,114.38 L 797.26,112.28 L 798.08,111.59 L 800.62,109.83 L 802.35,108.98 L 803.23,108.73 L 804.99,108.33 L 805.87,108.29 L 807.63,108.32 L 808.50,108.50 L 810.24,108.96 L 811.08,109.34 L 812.76,110.23 L 813.57,110.83 L 815.16,112.13 L 815.92,112.93 L 817.40,114.64 L 818.09,115.65 L 820.99,119.66 L 821.91,120.86 L 822.30,121.34 L 823.04,122.22 L 823.30,122.50 L 824.29,123.67 L 825.14,124.75 L 825.62,125.38 L 827.62,128.12 L 828.55,129.50 L 831.61,133.83 L 832.62,135.18 L 833.06,135.76 L 833.90,136.83 L 834.21,137.20 L 835.61,138.97 L 836.94,140.72 L 837.74,141.78 L 839.40,144.03 L 840.30,145.26 L 842.11,147.75 L 843.00,149.00 L 846.95,154.53 L 849.17,157.63 L 850.10,158.92 L 851.85,161.34 L 852.58,162.33 L 853.93,164.19 L 854.50,164.95 L 855.55,166.36 L 855.99,166.94 L 856.82,168.01 L 857.18,168.46 L 858.52,170.07 L 859.18,170.82 L 861.38,173.54 L 862.04,174.46 L 862.31,174.87 L 862.81,175.65 L 862.98,175.96 L 863.34,176.54 L 863.75,177.15 L 864.02,177.55 L 864.62,178.41 L 864.99,178.93 L 865.76,180.01 L 866.20,180.63 L 868.08,183.25 L 869.16,184.74 L 871.41,187.82 L 872.59,189.43 L 874.98,192.68 L 876.15,194.26 L 878.46,197.37 L 879.51,198.77 L 881.51,201.43 L 882.33,202.50 L 883.11,203.51 L 883.44,203.93 L 884.05,204.71 L 884.29,205.00 L 885.15,206.13 L 886.04,207.35 L 886.60,208.12 L 887.78,209.75 L 888.43,210.66 L 889.76,212.54 L 890.44,213.50 L 892.41,216.26 L 893.60,217.91 L 894.10,218.59 L 895.03,219.84 L 895.35,220.25 L 895.89,220.93 L 895.97,221.00 L 896.59,221.75 L 897.34,222.73 L 897.83,223.41 L 898.91,224.88 L 899.52,225.74 L 900.80,227.54 L 901.47,228.50 L 903.43,231.26 L 904.62,232.91 L 905.12,233.59 L 906.05,234.84 L 906.37,235.25 L 906.91,235.93 L 907.00,236.00 L 907.63,236.75 L 908.38,237.73 L 908.89,238.41 L 909.97,239.88 L 910.59,240.74 L 911.88,242.54 L 912.56,243.50 L 914.30,245.97 L 915.29,247.36 L 915.71,247.95 L 917.24,250.07 L 917.90,250.94 L 919.18,252.62 L 919.91,253.54 L 920.67,254.48 L 921.11,255.02 L 922.02,256.14 L 922.56,256.80 L 924.16,258.49 L 924.94,259.04 L 925.71,259.52 L 926.04,259.65 L 926.65,259.83 L 926.88,259.79 L 927.65,259.41 L 928.19,258.95 L 928.47,258.63 L 929.59,257.09 L 930.13,256.06 L 931.17,253.84 L 931.59,252.59 L 932.37,250.04 L 932.59,248.75 L 933.32,246.10 L 933.60,245.49 L 933.74,245.30 L 934.01,245.00 L 934.13,245.00 L 934.74,244.56 L 935.00,243.90 L 935.00,243.49 L 935.27,241.91 L 935.67,240.71 L 935.92,240.24 L 937.73,236.63 L 938.95,234.01 L 939.55,232.64 L 941.90,227.08 L 942.88,224.47 L 943.82,221.92 L 944.21,220.76 L 944.94,218.54 L 945.20,217.61 L 945.66,215.88 L 945.77,215.26 L 945.89,214.18 L 945.81,213.94 L 945.56,214.18 L 945.22,214.78 L 944.97,215.28 L 944.43,216.40 L 944.09,217.14 L 943.37,218.74 L 942.95,219.69 L 942.07,221.70 L 941.58,222.84 L 940.58,225.20 L 940.04,226.50 L 937.77,231.96 L 936.54,235.00 L 933.03,243.62 L 931.96,246.22 L 931.46,247.41 L 930.50,249.71 L 930.07,250.73 L 929.24,252.67 L 928.88,253.49 L 928.22,255.02 L 927.96,255.60 L 927.48,256.64 L 927.32,256.96 L 927.06,257.46 L 927.02,257.49 L 926.52,257.62 L 926.12,257.52 L 926.00,257.44 L 926.22,257.52 L 927.17,257.21 L 927.19,257.19 L 927.33,256.89 L 927.42,256.71 L 927.69,256.09 L 927.84,255.75 L 928.23,254.85 L 928.44,254.36 L 928.94,253.18 L 929.46,251.93 L 930.82,248.70 L 931.54,246.97 L 933.22,242.91 L 934.10,240.79 L 936.05,236.05 L 937.06,233.62 L 939.21,228.38 L 940.31,225.71 L 942.59,220.13 L 943.75,217.31 L 946.10,211.55 L 946.17,211.38 L 946.16,211.41 L 946.27,211.63 L 946.59,212.00 L 946.89,212.00 L 947.67,211.44 L 948.00,210.61 L 948.00,210.08 L 948.24,208.63 L 948.60,207.92 L 948.83,207.83 L 949.07,207.56 L 949.31,207.19 L 949.45,206.91 L 950.11,205.60 L 950.53,204.66 L 951.42,202.62 L 951.91,201.41 L 952.93,198.88 L 953.45,197.50 L 954.99,193.46 L 955.95,190.94 L 956.36,189.85 L 957.14,187.81 L 957.42,187.07 L 957.91,185.78 L 958.02,185.50 L 958.52,184.29 L 959.01,183.15 L 959.31,182.47 L 960.63,179.51 L 961.33,178.00 L 962.46,175.46 L 963.33,173.43 L 963.80,172.32 L 965.74,167.66 L 966.66,165.38 L 967.56,163.14 L 967.96,162.13 L 968.72,160.17 L 969.02,159.37 L 969.57,157.89 L 969.74,157.39 L 970.00,156.57 L 970.00,156.47 L 969.58,155.82 L 968.91,154.99 L 968.43,154.42 L 967.37,153.19 L 966.73,152.47 L 965.39,150.97 L 964.66,150.17 L 960.73,145.26 L 958.32,141.65 L 957.32,139.87 L 956.36,138.10 L 955.96,137.26 L 955.20,135.61 L 954.91,134.86 L 954.39,133.41 L 954.24,132.78 L 954.00,131.59 L 954.00,131.12 L 953.71,129.52 L 953.27,128.67 L 953.00,128.50 L 952.61,127.60 L 952.38,126.42 L 952.29,125.60 L 952.13,123.84 L 952.08,122.80 L 952.00,120.65 L 952.00,119.50 L 952.08,116.20 L 952.20,114.21 L 952.29,113.40 L 952.49,111.90 L 952.61,111.40 L 952.86,110.58 L 953.00,110.50 L 953.71,109.50 L 954.00,108.50 L 954.00,107.97 L 954.21,106.49 L 954.55,105.26 L 954.80,104.55 L 956.01,101.48 L 956.84,99.78 L 958.64,96.34 L 959.63,94.71 L 961.66,91.59 L 962.65,90.38 L 964.63,88.19 L 966.14,86.70 L 966.98,85.95 L 970.49,82.99 L 972.39,81.64 L 976.23,79.03 L 978.09,78.00 L 979.93,77.02 L 980.80,76.61 L 982.50,75.87 L 983.28,75.61 L 986.47,74.81 L 988.99,74.41 L 990.39,74.27 L 993.27,74.03 L 994.79,73.97 L 997.88,73.89 M 751.87,335.55 L 751.06,335.76 L 750.65,335.84 L 753.66,334.98 M 708.38,324.52 L 709.75,325.67 L 712.56,327.88 L 714.03,328.89 L 717.02,330.82 L 718.56,331.66 L 721.66,333.26 L 723.24,333.92 L 726.41,335.12 L 727.93,335.55 L 726.40,335.12 L 723.21,333.91 L 721.62,333.25 L 718.50,331.65 L 716.96,330.80 L 713.97,328.86 L 712.50,327.86 L 709.69,325.63 L 708.32,324.48 L 706.81,323.02 M 763.20,330.97 L 760.50,332.35 L 759.14,333.01 L 756.29,334.14 L 754.98,334.56 L 758.23,333.36 L 759.99,332.54 L 763.38,330.86 M 781.92,312.49 L 781.90,312.51 L 781.93,312.47 M 787.18,298.96 L 786.87,300.38 L 786.04,303.17 L 785.59,304.56 L 784.50,307.26 L 783.93,308.60 L 783.23,309.99 L 783.43,309.56 L 786.08,302.82 L 787.26,298.57 M 696.16,308.02 L 696.90,309.59 L 696.89,309.58 L 696.12,307.92 L 696.00,307.63 M 738.40,268.66 L 736.96,268.76 L 736.33,268.85 L 734.07,269.27 L 733.28,269.64 L 731.92,270.46 L 731.55,271.04 L 731.00,272.31 L 731.00,273.12 L 730.71,274.45 L 730.27,275.00 L 730.00,275.00 L 729.29,275.45 L 729.00,276.12 L 729.00,276.55 L 728.84,277.48 L 728.59,278.34 L 728.41,278.86 L 727.55,281.10 L 727.00,282.24 L 725.34,287.23 L 724.93,290.58 L 725.07,292.19 L 725.58,295.34 L 726.17,296.77 L 726.81,298.16 L 727.22,298.81 L 728.09,300.07 L 728.61,300.64 L 729.30,301.27 L 729.98,301.81 L 730.38,302.10 L 732.17,303.35 L 733.11,303.92 L 735.08,304.91 L 736.23,305.25 L 738.60,305.81 L 739.73,305.92 L 741.93,306.01 L 742.77,305.86 L 743.56,305.68 L 743.85,305.54 L 744.37,305.22 L 744.50,305.00 L 745.48,304.29 L 746.45,304.00 L 746.96,304.00 L 747.96,303.73 L 748.74,303.30 L 749.16,302.98 L 750.95,301.47 L 751.83,300.47 L 753.56,298.37 L 754.24,297.28 L 754.88,296.20 L 755.12,295.69 L 755.54,294.68 L 755.65,294.23 L 756.67,291.42 L 757.66,289.32 L 758.17,288.50 L 759.67,284.99 L 760.07,282.64 L 759.98,281.49 L 759.58,279.23 L 759.09,278.18 L 757.91,276.11 L 757.03,275.19 L 753.57,272.09 L 751.24,270.58 L 749.97,270.07 L 747.36,269.19 L 745.86,268.96 L 742.71,268.62 L 740.85,268.61 M 284.40,128.16 L 288.24,128.28 L 290.16,128.35 L 293.94,128.58 L 295.80,128.71 L 299.27,129.05 L 300.94,129.23 L 303.88,129.66 L 307.44,130.41 L 310.97,131.40 L 317.66,133.85 L 320.94,135.16 L 327.11,138.23 L 330.13,139.85 L 335.76,143.54 L 338.52,145.46 L 343.61,149.77 L 346.09,151.99 L 350.64,156.89 L 352.85,159.42 L 356.84,164.91 L 358.76,167.72 L 362.18,173.80 L 366.66,183.55 L 367.38,185.36 L 368.59,188.77 L 369.16,190.47 L 370.10,193.91 L 370.53,195.67 L 371.22,199.50 L 371.54,201.49 L 372.01,206.05 L 372.12,207.25 L 372.30,209.86 L 372.38,211.19 L 372.52,214.10 L 372.58,215.60 L 372.68,218.85 L 372.73,220.53 L 372.79,224.18 L 372.82,226.05 L 372.85,230.14 L 372.86,232.24 L 372.87,236.80 L 372.87,239.14 L 372.85,244.23 L 372.80,252.50 L 372.50,293.50 L 370.18,296.75 L 369.86,297.20 L 369.00,298.23 L 368.54,298.76 L 367.48,299.86 L 364.26,302.75 L 360.66,305.50 L 316.08,305.68 L 313.95,305.69 L 309.95,305.70 L 307.99,305.70 L 304.31,305.71 L 302.51,305.71 L 299.13,305.71 L 297.48,305.71 L 294.40,305.70 L 292.89,305.69 L 290.08,305.67 L 288.71,305.66 L 286.17,305.64 L 283.68,305.61 L 279.44,305.53 L 277.43,305.48 L 274.04,305.36 L 272.45,305.30 L 269.80,305.14 L 268.56,305.05 L 266.53,304.85 L 265.58,304.74 L 264.06,304.49 L 261.79,304.08 L 257.38,302.98 L 255.19,302.39 L 250.95,300.96 L 248.85,300.20 L 244.80,298.44 L 242.79,297.52 L 238.93,295.44 L 237.03,294.37 L 233.37,291.99 L 231.57,290.77 L 228.13,288.10 L 226.44,286.73 L 223.23,283.79 L 221.65,282.28 L 218.68,279.07 L 217.22,277.43 L 214.50,273.97 L 213.17,272.21 L 210.70,268.50 L 209.51,266.62 L 207.31,262.68 L 206.25,260.69 L 204.34,256.54 L 203.42,254.43 L 201.79,250.07 L 201.02,247.87 L 199.70,243.32 L 199.08,241.02 L 198.08,236.29 L 196.93,229.00 L 196.67,226.85 L 196.40,222.38 L 196.31,220.12 L 196.35,215.52 L 196.42,213.21 L 196.77,208.55 L 196.98,206.23 L 197.62,201.62 L 197.98,199.33 L 198.90,194.86 L 199.39,192.65 L 200.57,188.40 L 201.19,186.31 L 202.63,182.37 L 205.04,176.92 L 206.68,173.65 L 210.38,167.57 L 212.29,164.61 L 216.51,159.15 L 218.68,156.50 L 223.40,151.67 L 225.82,149.34 L 231.04,145.15 L 233.71,143.14 L 239.41,139.60 L 242.31,137.92 L 248.48,135.04 L 251.62,133.69 L 258.25,131.48 L 268.69,128.93 L 269.72,128.74 L 272.40,128.46 L 273.83,128.34 L 277.13,128.20 L 278.83,128.15 L 282.52,128.15 M 581.38,128.16 L 585.23,128.28 L 587.16,128.35 L 590.94,128.58 L 592.80,128.71 L 596.28,129.05 L 597.96,129.23 L 600.92,129.66 L 604.50,130.41 L 607.81,131.32 L 614.11,133.75 L 617.19,135.06 L 623.01,138.24 L 625.86,139.92 L 631.15,143.82 L 633.73,145.85 L 638.46,150.40 L 640.75,152.76 L 644.86,157.93 L 646.83,160.59 L 650.28,166.32 L 651.92,169.26 L 654.66,175.51 L 657.92,185.42 L 658.22,186.56 L 658.79,189.20 L 659.06,190.57 L 659.58,193.55 L 660.08,196.59 L 660.86,202.94 L 661.03,204.50 L 661.28,207.47 L 661.39,208.91 L 661.52,211.53 L 661.57,212.78 L 661.56,214.88 L 661.35,217.25 L 661.14,218.44 L 660.25,220.76 L 659.74,221.89 L 658.32,224.02 L 657.56,225.05 L 655.70,226.88 L 652.52,229.16 L 648.50,231.42 L 596.30,231.13 L 592.79,231.11 L 586.33,231.08 L 583.19,231.07 L 577.45,231.05 L 574.66,231.04 L 569.60,231.04 L 567.14,231.04 L 562.71,231.05 L 560.57,231.05 L 556.73,231.08 L 554.88,231.10 L 551.59,231.15 L 550.00,231.18 L 547.23,231.25 L 545.89,231.28 L 543.58,231.38 L 542.48,231.43 L 540.60,231.54 L 539.71,231.61 L 538.22,231.75 L 537.51,231.83 L 536.37,232.00 L 535.83,232.09 L 534.99,232.30 L 534.22,232.51 L 533.42,233.03 L 533.00,233.98 L 533.00,234.33 L 533.29,235.45 L 533.48,236.07 L 534.09,237.61 L 534.43,238.42 L 535.28,240.24 L 535.73,241.17 L 536.75,243.14 L 537.80,245.11 L 540.09,248.88 L 540.65,249.76 L 541.73,251.30 L 543.20,253.14 L 544.59,254.67 L 547.61,257.45 L 549.15,258.79 L 552.44,261.19 L 554.11,262.34 L 557.64,264.34 L 559.44,265.30 L 563.18,266.90 L 565.08,267.65 L 569.01,268.83 L 571.00,269.37 L 575.09,270.13 L 577.15,270.45 L 581.36,270.77 L 587.80,270.75 L 590.51,270.59 L 595.57,269.87 L 598.06,269.44 L 602.86,268.09 L 605.24,267.33 L 610.01,265.29 L 617.39,261.35 L 618.28,260.82 L 619.80,259.94 L 620.53,259.52 L 621.79,258.84 L 623.01,258.20 L 624.99,257.41 L 625.96,257.08 L 627.89,256.77 L 631.39,256.61 L 632.73,256.60 L 635.22,256.87 L 636.43,257.04 L 638.66,257.66 L 639.74,258.01 L 641.69,258.98 L 642.63,259.50 L 644.29,260.78 L 645.08,261.47 L 646.42,263.06 L 647.06,263.90 L 648.07,265.79 L 648.54,266.78 L 649.20,268.95 L 649.79,272.51 L 649.88,273.62 L 649.79,275.67 L 649.70,276.68 L 649.21,278.57 L 648.90,279.50 L 647.96,281.29 L 647.42,282.17 L 645.98,283.90 L 645.19,284.76 L 643.20,286.48 L 642.14,287.34 L 639.56,289.10 L 638.20,289.99 L 634.99,291.84 L 629.40,294.77 L 627.31,295.81 L 623.13,297.66 L 621.04,298.55 L 616.83,300.08 L 614.73,300.80 L 610.48,302.02 L 608.34,302.58 L 604.02,303.49 L 601.85,303.90 L 597.44,304.50 L 595.21,304.76 L 590.68,305.06 L 588.39,305.17 L 583.71,305.17 L 581.35,305.13 L 576.50,304.84 L 573.74,304.64 L 568.35,303.91 L 565.68,303.50 L 560.48,302.36 L 557.91,301.74 L 552.93,300.18 L 550.47,299.36 L 545.71,297.41 L 543.36,296.38 L 538.85,294.03 L 536.62,292.81 L 532.36,290.08 L 530.27,288.66 L 526.28,285.54 L 520.63,280.45 L 518.49,278.32 L 514.60,273.87 L 512.72,271.62 L 509.38,266.91 L 507.77,264.53 L 504.97,259.55 L 503.64,257.03 L 501.37,251.79 L 500.31,249.13 L 498.58,243.61 L 497.78,240.81 L 496.59,235.00 L 496.06,232.06 L 495.40,225.97 L 495.00,216.50 L 495.00,213.66 L 495.32,208.11 L 495.53,205.36 L 496.26,200.01 L 496.68,197.37 L 497.81,192.23 L 498.43,189.69 L 499.96,184.78 L 500.77,182.36 L 502.67,177.69 L 503.67,175.38 L 505.95,170.97 L 507.13,168.79 L 509.76,164.64 L 511.12,162.60 L 514.10,158.73 L 515.63,156.84 L 518.95,153.26 L 520.65,151.51 L 524.28,148.25 L 526.14,146.66 L 530.10,143.71 L 532.11,142.28 L 536.37,139.68 L 538.53,138.42 L 543.08,136.16 L 545.39,135.08 L 550.21,133.18 L 552.66,132.28 L 557.75,130.77 L 565.69,128.93 L 566.71,128.74 L 569.39,128.46 L 570.82,128.34 L 574.11,128.20 L 575.82,128.15 L 579.51,128.15 M 77.11,57.85 L 82.11,57.85 L 84.64,57.85 L 89.89,57.86 L 95.21,57.88 L 106.50,57.91 L 124.18,58.00 L 126.90,58.02 L 132.08,58.05 L 134.64,58.06 L 139.50,58.09 L 141.89,58.10 L 146.44,58.13 L 148.68,58.14 L 152.93,58.17 L 155.02,58.18 L 158.98,58.21 L 160.92,58.22 L 164.60,58.25 L 168.21,58.27 L 174.63,58.32 L 177.72,58.35 L 183.16,58.40 L 185.76,58.43 L 190.31,58.49 L 192.48,58.52 L 196.21,58.59 L 197.99,58.63 L 201.00,58.70 L 202.43,58.74 L 204.81,58.84 L 205.92,58.88 L 207.75,58.99 L 208.61,59.05 L 209.97,59.17 L 210.60,59.24 L 211.59,59.38 L 212.50,59.53 L 213.55,59.90 L 214.68,60.59 L 215.80,61.42 L 217.69,63.34 L 218.58,64.33 L 220.01,66.51 L 220.66,67.63 L 221.61,70.00 L 222.02,71.20 L 222.48,73.68 L 222.65,74.93 L 222.61,77.44 L 222.53,78.69 L 221.97,81.16 L 221.63,82.37 L 220.56,84.71 L 218.35,87.99 L 217.68,88.80 L 216.49,90.12 L 215.89,90.74 L 214.64,91.73 L 213.97,92.19 L 212.33,92.89 L 211.44,93.21 L 209.10,93.69 L 208.46,93.79 L 207.00,93.97 L 206.23,94.06 L 204.48,94.20 L 203.57,94.26 L 201.49,94.37 L 200.42,94.42 L 197.98,94.50 L 196.72,94.53 L 193.89,94.59 L 192.42,94.62 L 189.15,94.67 L 187.45,94.69 L 183.71,94.73 L 177.50,94.78 L 175.56,94.80 L 172.03,94.83 L 170.32,94.85 L 167.22,94.88 L 165.72,94.90 L 163.02,94.93 L 161.72,94.95 L 159.39,94.98 L 158.27,95.00 L 156.28,95.05 L 155.32,95.07 L 153.65,95.12 L 152.84,95.15 L 151.45,95.21 L 150.78,95.24 L 149.64,95.31 L 148.55,95.39 L 147.00,95.58 L 146.31,95.69 L 145.38,95.96 L 144.97,96.11 L 144.42,96.47 L 143.75,97.14 L 143.55,97.39 L 143.20,98.22 L 143.12,98.49 L 142.98,99.20 L 142.91,99.59 L 142.78,100.61 L 142.72,101.17 L 142.62,102.59 L 142.57,103.35 L 142.48,105.23 L 142.43,106.24 L 142.36,108.67 L 142.32,109.96 L 142.26,113.01 L 142.23,114.62 L 142.18,118.36 L 142.16,120.33 L 142.12,124.85 L 142.10,127.22 L 142.08,132.59 L 142.06,135.39 L 142.04,141.69 L 142.03,144.97 L 142.02,152.28 L 142.02,154.17 L 142.01,158.16 L 142.01,160.19 L 142.01,164.45 L 142.01,166.62 L 142.00,171.17 L 142.00,173.49 L 142.00,178.34 L 142.00,180.80 L 142.00,185.96 L 142.00,194.05 L 142.00,198.07 L 142.00,205.74 L 141.99,209.51 L 141.98,216.66 L 141.98,220.18 L 141.96,226.82 L 141.96,230.08 L 141.94,236.22 L 141.92,239.22 L 141.90,244.86 L 141.89,247.61 L 141.85,252.75 L 141.84,255.26 L 141.80,259.90 L 141.78,262.16 L 141.74,266.31 L 141.72,268.33 L 141.67,271.99 L 141.65,273.76 L 141.59,276.94 L 141.56,278.47 L 141.50,281.17 L 141.47,282.46 L 141.41,284.68 L 141.38,285.74 L 141.30,287.49 L 141.27,288.30 L 141.19,289.58 L 141.15,290.17 L 141.07,290.98 L 140.94,291.68 L 140.58,292.64 L 139.22,294.77 L 138.46,295.84 L 136.54,297.95 L 135.54,298.98 L 133.40,300.74 L 130.28,302.62 L 129.90,302.78 L 128.90,303.06 L 128.36,303.20 L 127.11,303.42 L 125.81,303.62 L 122.81,303.83 L 121.30,303.90 L 118.36,303.81 L 116.96,303.72 L 114.75,303.31 L 114.27,303.18 L 113.51,302.72 L 113.00,301.93 L 113.00,301.67 L 112.74,301.27 L 112.11,301.00 L 111.94,301.00 L 111.45,300.77 L 111.18,300.63 L 110.51,300.16 L 109.81,299.64 L 108.16,298.12 L 107.34,297.31 L 105.79,295.58 L 104.15,293.28 L 104.09,293.18 L 103.99,292.69 L 103.94,292.41 L 103.84,291.54 L 103.79,291.06 L 103.71,289.78 L 103.67,289.09 L 103.59,287.38 L 103.55,286.47 L 103.48,284.30 L 103.45,283.16 L 103.38,280.51 L 103.35,279.12 L 103.30,275.97 L 103.27,274.32 L 103.23,270.64 L 103.20,268.72 L 103.16,264.48 L 103.14,262.29 L 103.11,257.46 L 103.10,254.97 L 103.07,249.55 L 103.06,246.75 L 103.04,240.70 L 103.03,237.59 L 103.01,230.88 L 103.01,227.44 L 103.00,220.05 L 102.99,216.27 L 102.99,208.18 L 102.99,195.23 L 102.99,192.25 L 102.99,186.58 L 102.99,183.78 L 102.99,178.46 L 102.99,175.84 L 103.00,170.86 L 103.00,168.41 L 102.99,163.77 L 102.99,161.48 L 102.99,157.16 L 102.99,155.03 L 102.99,151.01 L 102.99,149.04 L 102.98,145.31 L 102.98,143.49 L 102.97,140.05 L 102.97,138.36 L 102.96,135.19 L 102.96,133.64 L 102.94,130.74 L 102.93,127.90 L 102.90,122.94 L 102.88,120.58 L 102.84,116.52 L 102.81,114.59 L 102.75,111.32 L 102.72,109.78 L 102.65,107.22 L 102.61,106.02 L 102.51,104.07 L 102.46,103.16 L 102.35,101.72 L 102.29,101.06 L 102.15,100.05 L 102.08,99.58 L 101.91,98.90 L 101.83,98.59 L 101.64,98.13 L 100.97,97.20 L 100.47,96.66 L 99.28,95.94 L 98.89,95.79 L 97.78,95.55 L 97.15,95.44 L 95.37,95.28 L 94.38,95.21 L 91.71,95.11 L 90.98,95.09 L 89.31,95.06 L 88.43,95.04 L 86.45,95.02 L 85.42,95.01 L 83.11,94.99 L 81.91,94.99 L 79.23,94.98 L 77.85,94.97 L 74.78,94.96 L 69.71,94.96 L 65.69,94.95 L 58.03,94.87 L 56.17,94.85 L 52.66,94.79 L 50.95,94.76 L 47.80,94.68 L 46.28,94.64 L 43.58,94.55 L 42.30,94.50 L 40.14,94.40 L 39.14,94.35 L 37.61,94.24 L 36.14,94.07 L 34.83,93.82 L 32.42,92.96 L 31.26,92.48 L 29.17,91.20 L 28.17,90.51 L 26.42,88.86 L 25.60,87.99 L 24.24,86.03 L 23.61,85.01 L 22.66,82.77 L 22.24,81.62 L 21.74,79.17 L 21.55,77.92 L 21.52,75.31 L 22.05,71.25 L 22.36,69.85 L 23.70,67.02 L 24.47,65.62 L 26.48,63.07 L 27.54,61.86 L 29.89,59.96 L 30.49,59.54 L 31.69,58.89 L 33.47,58.24 L 33.57,58.21 L 34.23,58.17 L 34.63,58.14 L 35.86,58.10 L 36.55,58.08 L 38.32,58.04 L 39.28,58.02 L 41.56,57.99 L 42.77,57.97 L 45.53,57.95 L 46.97,57.93 L 50.19,57.91 L 51.85,57.90 L 55.48,57.88 L 57.34,57.88 L 61.36,57.86 L 63.42,57.86 L 67.79,57.85 L 70.02,57.85 L 74.72,57.85 M 431.48,57.52 L 434.90,58.15 L 436.54,58.56 L 439.46,60.00 L 440.86,60.81 L 443.25,63.04 L 446.23,67.25 L 448.50,71.50 L 449.50,255.65 L 452.29,259.86 L 453.12,261.12 L 454.73,262.94 L 455.56,263.75 L 457.46,264.81 L 458.48,265.27 L 461.06,265.75 L 461.76,265.84 L 463.37,265.94 L 466.11,266.00 L 467.77,266.00 L 470.54,266.28 L 471.85,266.48 L 474.12,267.23 L 475.21,267.67 L 477.20,268.98 L 480.13,271.66 L 480.81,272.39 L 481.95,274.08 L 482.48,274.96 L 483.34,276.89 L 483.73,277.87 L 484.29,279.95 L 484.53,280.99 L 484.79,283.14 L 484.88,284.22 L 484.83,286.35 L 484.77,287.41 L 484.40,289.46 L 484.18,290.46 L 483.49,292.34 L 482.09,294.87 L 481.79,295.30 L 480.86,296.30 L 480.36,296.81 L 479.15,297.88 L 475.20,300.73 L 474.17,301.33 L 472.41,302.18 L 471.53,302.56 L 469.62,303.05 L 468.59,303.26 L 465.95,303.51 L 465.21,303.57 L 463.51,303.65 L 460.51,303.75 L 459.50,303.78 L 457.71,303.81 L 456.84,303.82 L 455.29,303.81 L 453.79,303.78 L 451.32,303.58 L 450.14,303.45 L 447.99,302.99 L 446.92,302.73 L 444.67,301.98 L 443.10,301.43 L 440.12,300.14 L 438.67,299.46 L 435.91,297.93 L 434.56,297.14 L 432.02,295.36 L 430.77,294.44 L 428.43,292.40 L 427.29,291.36 L 425.15,289.07 L 424.11,287.89 L 422.17,285.34 L 421.22,284.03 L 419.47,281.21 L 417.05,276.68 L 416.14,274.79 L 414.66,271.58 L 413.97,269.99 L 412.87,266.67 L 412.62,265.79 L 412.18,263.84 L 411.97,262.83 L 411.61,260.52 L 411.44,259.31 L 411.15,256.53 L 411.02,255.07 L 410.79,251.69 L 410.69,249.92 L 410.52,245.82 L 410.45,243.68 L 410.33,238.75 L 410.28,236.17 L 410.20,230.29 L 410.19,228.75 L 410.16,225.48 L 410.15,223.81 L 410.14,220.27 L 410.13,218.45 L 410.12,214.61 L 410.12,212.65 L 410.11,208.50 L 410.11,206.38 L 410.12,201.90 L 410.12,199.62 L 410.13,194.80 L 410.13,192.35 L 410.15,187.18 L 410.15,184.55 L 410.17,179.01 L 410.18,176.19 L 410.19,170.26 L 410.22,160.93 L 410.50,69.35 L 413.16,65.33 L 414.05,63.99 L 416.15,61.84 L 417.25,60.85 L 419.82,59.40 L 421.18,58.76 L 424.28,57.97 L 429.60,57.52 M 917.80,294.55 L 919.40,296.59 L 920.05,297.38 L 921.24,298.82 L 921.70,299.35 L 922.52,300.28 L 922.82,300.58 L 923.34,301.06 L 923.50,301.16 L 924.17,301.47 L 923.50,301.22 L 923.34,301.12 L 922.81,300.61 L 922.51,300.30 L 921.65,299.33 L 921.18,298.78 L 919.95,297.27 L 919.29,296.45 L 917.64,294.35 L 917.05,293.60 M 938.75,300.18 L 937.70,300.92 L 937.20,301.12 L 937.43,301.02 L 938.17,300.57 L 938.80,300.13 M 787.93,294.64 L 787.75,296.09 L 787.42,297.76 L 787.69,296.08 L 788.14,292.51 M 951.97,273.86 L 951.37,275.31 L 950.27,278.03 L 949.73,279.36 L 948.73,281.81 L 948.24,283.00 L 947.36,285.16 L 946.93,286.20 L 946.17,288.04 L 945.81,288.92 L 945.19,290.42 L 944.89,291.13 L 944.41,292.28 L 944.19,292.81 L 943.87,293.57 L 943.56,294.27 L 943.06,295.31 L 942.25,296.40 L 942.47,295.98 L 943.13,294.54 L 943.58,293.52 L 944.56,291.28 L 945.15,289.92 L 946.39,287.03 L 947.09,285.38 L 948.55,281.95 L 949.33,280.08 L 950.94,276.25 L 951.79,274.23 L 953.09,271.10 M 916.91,293.42 L 916.76,293.22 L 915.98,292.21 M 788.26,287.30 L 788.26,288.63 L 788.20,286.47 M 786.02,274.94 L 786.08,275.16 L 785.61,273.79 M 783.58,268.79 L 784.55,270.81 L 784.73,271.33 L 783.90,269.52 L 781.82,265.38 M 282.33,163.59 L 278.80,163.90 L 277.05,164.10 L 273.58,164.78 L 271.85,165.17 L 268.47,166.23 L 266.79,166.81 L 263.52,168.24 L 261.90,169.00 L 258.78,170.80 L 257.23,171.74 L 254.29,173.90 L 252.84,175.02 L 250.10,177.54 L 248.76,178.85 L 246.26,181.72 L 242.82,186.43 L 241.41,188.60 L 239.19,192.95 L 238.18,195.14 L 236.70,199.72 L 236.05,202.06 L 235.25,207.11 L 234.73,215.50 L 234.71,217.63 L 234.86,221.60 L 234.97,223.54 L 235.40,227.18 L 235.64,228.96 L 236.36,232.31 L 236.76,233.96 L 237.79,237.08 L 238.35,238.62 L 239.71,241.56 L 240.44,243.02 L 242.15,245.83 L 243.05,247.23 L 245.14,249.97 L 248.70,254.06 L 250.03,255.48 L 252.79,258.01 L 254.19,259.23 L 257.07,261.38 L 258.53,262.40 L 261.56,264.16 L 263.09,264.99 L 266.26,266.36 L 267.86,267.00 L 271.19,268.00 L 272.87,268.45 L 276.37,269.07 L 278.14,269.34 L 281.82,269.59 L 287.54,269.55 L 289.91,269.43 L 294.91,268.66 L 296.11,268.44 L 298.33,267.91 L 299.39,267.64 L 301.19,267.03 L 302.88,266.40 L 306.16,264.86 L 307.77,264.05 L 310.86,262.19 L 312.39,261.22 L 315.26,259.06 L 316.67,257.94 L 319.31,255.52 L 320.59,254.27 L 322.95,251.61 L 324.09,250.26 L 326.13,247.40 L 327.11,245.94 L 328.81,242.91 L 330.94,238.20 L 331.93,235.62 L 333.30,230.24 L 333.89,227.53 L 334.49,222.00 L 334.69,219.22 L 334.54,213.66 L 334.37,210.89 L 333.49,205.44 L 332.96,202.74 L 331.38,197.53 L 330.50,194.97 L 328.25,190.13 L 327.04,187.77 L 324.14,183.44 L 319.08,177.66 L 317.65,176.29 L 314.63,173.86 L 313.11,172.70 L 309.92,170.67 L 308.32,169.70 L 305.00,168.07 L 303.33,167.31 L 299.91,166.07 L 298.19,165.50 L 294.70,164.66 L 292.94,164.28 L 289.41,163.83 L 287.64,163.65 L 284.10,163.58 M 714.52,248.59 L 712.65,249.95 L 708.97,252.78 L 707.41,254.23 L 702.63,259.51 L 699.69,263.53 L 698.43,265.64 L 697.10,268.05 L 698.54,265.35 L 699.36,263.90 L 701.22,261.13 L 702.19,259.77 L 704.34,257.19 L 705.45,255.93 L 707.88,253.57 L 709.13,252.43 L 711.83,250.32 L 713.21,249.29 L 716.16,247.46 L 717.67,246.57 L 718.25,246.29 M 780.22,262.76 L 781.50,264.76 L 781.72,265.19 L 780.40,263.08 L 778.09,259.64 M 849.06,154.34 L 851.17,157.21 L 855.62,163.23 L 857.87,166.28 L 862.50,172.56 L 867.17,178.88 L 876.69,191.80 L 879.06,195.00 L 883.72,201.33 L 886.03,204.46 L 890.52,210.55 L 892.74,213.56 L 896.96,219.28 L 899.03,222.09 L 902.89,227.34 L 904.77,229.89 L 908.18,234.52 L 909.82,236.75 L 912.69,240.65 L 913.37,241.57 L 914.62,243.26 L 915.22,244.08 L 916.29,245.54 L 916.81,246.24 L 917.52,247.21 L 917.19,246.77 L 915.96,245.11 L 914.70,243.40 L 914.01,242.47 L 912.60,240.55 L 911.83,239.50 L 910.41,237.58 L 909.35,236.13 L 908.76,235.33 L 906.26,231.94 L 904.82,229.98 L 901.83,225.91 L 900.18,223.67 L 896.79,219.07 L 894.98,216.62 L 891.31,211.65 L 889.41,209.06 L 885.56,203.85 L 883.61,201.21 L 875.77,190.59 L 872.01,185.50 L 861.04,170.63 L 857.59,165.96 L 855.97,163.76 L 852.81,159.46 L 851.36,157.50 L 848.57,153.70 L 847.34,152.03 L 845.00,148.85 L 844.98,148.81 M 574.98,162.48 L 570.03,163.31 L 567.56,163.80 L 562.79,165.17 L 560.47,165.91 L 556.28,167.69 L 555.29,168.16 L 553.49,169.14 L 551.11,170.69 L 550.17,171.38 L 548.27,173.03 L 547.33,173.90 L 545.47,175.83 L 543.63,177.83 L 540.26,182.38 L 538.66,184.71 L 536.06,189.48 L 535.48,190.67 L 534.53,192.97 L 533.47,196.28 L 532.78,199.00 L 624.89,199.00 L 623.35,193.75 L 622.58,191.13 L 620.52,186.31 L 619.41,183.98 L 616.70,179.76 L 615.27,177.74 L 611.97,174.17 L 610.25,172.47 L 606.40,169.57 L 604.42,168.22 L 600.08,166.04 L 597.86,165.04 L 593.09,163.61 L 590.65,162.99 L 585.50,162.35 L 577.39,162.31 M 955.88,141.18 L 957.31,143.74 L 958.15,145.00 L 959.91,147.52 L 960.91,148.78 L 963.00,151.30 L 964.18,152.58 L 968.18,156.92 L 965.41,163.76 L 965.72,162.96 L 965.93,162.43 L 966.26,161.57 L 966.61,160.62 L 966.96,159.65 L 967.35,158.31 L 967.49,157.69 L 967.34,156.68 L 967.18,156.17 L 966.33,154.99 L 966.06,154.66 L 965.38,153.89 L 964.09,152.48 L 962.92,151.22 L 960.85,148.71 L 959.86,147.46 L 958.12,144.95 L 957.29,143.70 L 955.86,141.15 L 955.35,140.18 M 1030.32,155.28 L 1027.69,157.41 L 1026.35,158.45 L 1023.50,160.31 L 1022.05,161.21 L 1020.24,162.14 L 1020.78,161.84 L 1025.01,159.29 L 1026.95,157.89 L 1028.85,156.47 L 1029.71,155.75 L 1030.90,154.72 M 777.61,155.05 L 776.64,157.53 L 777.73,154.74 L 778.34,153.17 M 1040.77,142.23 L 1039.96,143.69 L 1038.11,146.49 L 1037.15,147.86 L 1035.02,150.46 L 1033.92,151.74 L 1032.47,153.18 L 1034.74,150.68 L 1036.49,148.49 L 1037.34,147.32 L 1040.59,142.49 L 1041.43,140.98 M 781.38,145.38 L 780.14,148.56 L 779.37,150.54 L 781.18,145.89 L 782.00,143.77 M 997.60,105.00 L 995.54,105.02 L 994.39,105.05 L 993.91,105.08 L 992.18,105.29 L 991.52,105.52 L 990.28,106.08 L 989.66,106.56 L 988.40,107.67 L 987.58,108.49 L 986.12,110.18 L 985.17,111.50 L 984.75,112.21 L 983.93,113.62 L 983.60,114.31 L 983.01,115.65 L 982.84,116.24 L 981.43,120.13 L 980.87,121.42 L 980.59,122.00 L 980.05,123.09 L 979.80,123.50 L 978.53,126.10 L 978.24,126.91 L 978.15,127.26 L 978.00,127.90 L 978.00,128.12 L 978.30,129.16 L 978.77,130.03 L 979.11,130.54 L 980.77,132.73 L 981.88,133.91 L 984.22,136.29 L 985.46,137.33 L 987.92,139.28 L 989.00,139.89 L 990.69,140.70 L 991.66,140.99 L 993.69,141.51 L 994.77,141.66 L 996.98,141.90 L 998.09,141.92 L 1000.30,141.90 L 1001.35,141.80 L 1003.41,141.54 L 1004.33,141.32 L 1006.07,140.83 L 1006.76,140.51 L 1008.01,139.81 L 1008.40,139.38 L 1009.00,138.48 L 1009.00,137.97 L 1009.24,137.09 L 1009.61,136.07 L 1009.88,135.40 L 1010.48,133.95 L 1010.84,133.12 L 1011.59,131.40 L 1012.00,130.50 L 1014.03,125.20 L 1014.78,122.08 L 1014.85,120.68 L 1014.80,117.97 L 1014.48,116.72 L 1013.64,114.28 L 1012.92,113.11 L 1011.44,110.83 L 1010.49,109.54 L 1010.01,109.00 L 1009.05,108.00 L 1008.54,107.59 L 1007.51,106.83 L 1006.95,106.53 L 1005.80,105.99 L 1005.15,105.79 L 1003.81,105.44 L 1003.05,105.32 L 1001.46,105.12 L 1000.56,105.07 L 998.68,105.00 M 783.62,139.59 L 783.38,140.22 L 783.83,139.04 M 955.19,139.89 L 955.18,139.87 L 954.62,138.58 M 1046.69,114.60 L 1046.87,118.03 L 1046.91,119.74 L 1046.70,123.13 L 1046.56,124.82 L 1046.55,124.85 L 1046.63,123.78 L 1046.80,120.72 L 1046.80,119.00 L 1046.63,114.24 L 1046.61,114.03 M 809.09,106.25 L 810.71,106.83 L 811.53,107.20 L 813.27,108.41 L 814.16,109.10 L 816.15,111.05 L 817.19,112.12 L 819.57,114.91 L 820.19,115.67 L 821.54,117.35 L 822.23,118.22 L 823.68,120.11 L 822.57,118.70 L 821.82,117.79 L 820.36,116.02 L 819.68,115.24 L 818.36,113.72 L 817.74,113.05 L 815.41,110.60 L 814.40,109.69 L 812.46,108.06 L 811.61,107.51 L 809.96,106.59 L 809.20,106.35 L 808.51,106.18 M 799.28,108.71 L 796.85,110.51 L 796.06,111.35 L 796.17,111.21 L 797.24,110.10 L 797.79,109.58 L 798.96,108.73 L 799.90,108.29 M 805.19,106.35 L 805.76,106.23 L 805.90,106.21 M 1028.20,81.29 L 1029.89,82.54 L 1032.95,85.38 L 1034.43,86.85 L 1037.07,90.09 L 1038.34,91.76 L 1038.77,92.47 L 1038.68,92.35 L 1038.03,91.47 L 1035.19,87.93 L 1033.58,86.24 L 1030.24,82.95 L 1028.52,81.54 L 1028.05,81.18 M 981.11,74.89 L 978.27,76.16 L 976.89,76.89 L 974.16,78.42 L 972.85,79.26 L 970.28,81.01 L 969.07,81.97 L 966.69,83.93 L 967.27,83.37 L 970.74,80.62 L 972.50,79.32 L 976.22,77.13 L 978.13,76.10 L 982.20,74.43 L 982.21,74.42 M 1010.44,72.99 L 1012.69,73.56 L 1016.93,75.07 L 1017.64,75.35 L 1013.41,73.86 L 1011.06,73.20 L 1008.87,72.64 M 995.52,71.24 L 995.93,71.18 L 996.44,71.18 Z" fill="rgba(52,102,156,1)"/>
<path d="M 1174.46,128.29 L 1176.35,128.36 L 1180.05,128.59 L 1181.87,128.72 L 1185.28,129.06 L 1186.93,129.24 L 1189.86,129.68 L 1193.50,130.45 L 1196.51,131.27 L 1202.33,133.37 L 1205.20,134.49 L 1210.72,137.15 L 1213.44,138.55 L 1218.62,141.76 L 1221.16,143.42 L 1225.97,147.14 L 1228.32,149.06 L 1232.71,153.25 L 1234.85,155.40 L 1238.79,160.04 L 1240.71,162.42 L 1244.16,167.48 L 1248.75,175.50 L 1249.64,177.28 L 1251.24,180.96 L 1252.00,182.81 L 1253.33,186.63 L 1253.96,188.55 L 1255.02,192.47 L 1255.52,194.45 L 1256.31,198.47 L 1256.68,200.49 L 1257.22,204.57 L 1257.46,206.62 L 1257.73,210.75 L 1257.95,214.89 L 1257.61,223.22 L 1257.31,227.37 L 1255.95,235.59 L 1255.14,239.66 L 1252.78,247.59 L 1252.12,249.55 L 1250.63,253.37 L 1249.85,255.27 L 1248.11,258.96 L 1247.21,260.79 L 1245.23,264.33 L 1241.98,269.43 L 1240.87,271.04 L 1238.51,274.11 L 1237.31,275.62 L 1234.79,278.47 L 1233.51,279.87 L 1230.83,282.51 L 1229.46,283.81 L 1226.62,286.24 L 1223.74,288.61 L 1217.53,292.71 L 1214.35,294.65 L 1207.56,297.87 L 1204.09,299.36 L 1196.77,301.68 L 1193.04,302.73 L 1185.21,304.14 L 1181.23,304.73 L 1172.93,305.21 L 1168.73,305.33 L 1160.00,304.87 L 1156.88,304.62 L 1150.81,303.69 L 1147.81,303.15 L 1142.00,301.65 L 1139.14,300.83 L 1133.61,298.78 L 1130.89,297.69 L 1125.68,295.10 L 1123.12,293.74 L 1118.25,290.63 L 1115.87,289.01 L 1111.37,285.39 L 1109.17,283.52 L 1105.07,279.41 L 1099.40,272.70 L 1098.70,271.77 L 1097.24,269.61 L 1096.50,268.48 L 1095.00,266.01 L 1093.51,263.48 L 1090.64,257.92 L 1089.26,255.13 L 1086.93,249.67 L 1086.41,248.35 L 1085.52,245.87 L 1084.49,242.50 L 1084.01,240.64 L 1083.23,236.61 L 1082.87,234.55 L 1082.33,230.21 L 1082.09,228.01 L 1081.80,223.46 L 1081.68,221.18 L 1081.62,216.54 L 1081.63,214.22 L 1081.81,209.60 L 1081.93,207.31 L 1082.36,202.82 L 1082.60,200.61 L 1083.27,196.36 L 1084.55,190.38 L 1084.77,189.51 L 1085.42,187.48 L 1085.77,186.43 L 1086.63,184.13 L 1087.55,181.77 L 1089.82,176.68 L 1091.00,174.14 L 1093.51,169.32 L 1094.14,168.17 L 1095.37,166.07 L 1097.12,163.32 L 1097.94,162.13 L 1099.86,159.70 L 1100.86,158.47 L 1103.10,156.01 L 1105.41,153.55 L 1110.72,148.77 L 1113.45,146.44 L 1119.26,142.23 L 1120.72,141.23 L 1123.65,139.41 L 1128.00,136.99 L 1129.58,136.18 L 1133.51,134.58 L 1135.57,133.79 L 1140.15,132.31 L 1142.47,131.60 L 1147.28,130.38 L 1154.29,128.97 L 1155.50,128.77 L 1158.42,128.49 L 1159.95,128.37 L 1163.35,128.23 L 1166.84,128.12 M 1167.83,163.38 L 1166.24,163.42 L 1163.10,163.72 L 1161.53,163.91 L 1158.45,164.49 L 1156.92,164.82 L 1153.93,165.68 L 1152.44,166.15 L 1149.56,167.29 L 1148.13,167.90 L 1145.37,169.30 L 1144.01,170.04 L 1141.40,171.71 L 1140.12,172.58 L 1137.68,174.50 L 1136.48,175.50 L 1134.23,177.67 L 1133.12,178.79 L 1131.08,181.20 L 1130.09,182.44 L 1128.27,185.10 L 1125.83,189.33 L 1124.88,191.19 L 1123.30,195.12 L 1122.56,197.12 L 1121.40,201.27 L 1120.88,203.36 L 1120.14,207.65 L 1119.83,209.80 L 1119.53,214.17 L 1119.43,216.35 L 1119.56,220.71 L 1119.68,222.88 L 1120.25,227.17 L 1120.59,229.30 L 1121.59,233.44 L 1123.60,239.42 L 1124.18,240.84 L 1125.50,243.56 L 1126.20,244.90 L 1127.75,247.44 L 1128.55,248.69 L 1130.31,251.06 L 1131.21,252.22 L 1133.16,254.39 L 1135.16,256.52 L 1139.66,260.18 L 1141.99,261.90 L 1147.06,264.70 L 1149.65,265.99 L 1155.17,267.87 L 1157.97,268.70 L 1163.81,269.60 L 1165.28,269.77 L 1168.27,269.90 L 1169.77,269.93 L 1172.79,269.80 L 1174.31,269.70 L 1177.36,269.29 L 1178.88,269.06 L 1181.94,268.37 L 1184.24,267.80 L 1188.58,266.26 L 1190.70,265.43 L 1194.66,263.40 L 1196.59,262.32 L 1200.15,259.79 L 1201.88,258.47 L 1205.03,255.47 L 1206.56,253.91 L 1209.28,250.45 L 1210.59,248.67 L 1212.87,244.77 L 1213.96,242.77 L 1215.79,238.44 L 1218.00,231.49 L 1218.41,229.88 L 1219.03,226.65 L 1219.31,225.03 L 1219.65,221.80 L 1219.93,218.58 L 1219.72,212.21 L 1219.49,209.05 L 1218.29,202.92 L 1217.58,199.90 L 1215.46,194.15 L 1214.29,191.34 L 1211.31,186.11 L 1210.52,184.85 L 1208.77,182.44 L 1207.88,181.25 L 1205.94,179.02 L 1204.94,177.93 L 1202.82,175.90 L 1201.73,174.91 L 1199.42,173.09 L 1198.24,172.21 L 1195.76,170.63 L 1191.85,168.54 L 1190.29,167.80 L 1187.11,166.56 L 1185.51,165.99 L 1182.30,165.07 L 1180.69,164.65 L 1177.47,164.05 L 1175.85,163.79 L 1172.63,163.49 L 1171.03,163.38 Z" fill="rgba(59,134,204,1)"/>
<path d="M 1548.35,128.45 L 1550.30,128.60 L 1553.97,129.04 L 1559.00,129.92 L 1562.34,130.65 L 1568.77,132.67 L 1571.94,133.76 L 1578.01,136.47 L 1581.00,137.91 L 1586.66,141.28 L 1589.44,143.04 L 1594.65,147.04 L 1597.20,149.12 L 1601.93,153.71 L 1604.23,156.07 L 1608.42,161.23 L 1610.45,163.87 L 1614.07,169.54 L 1618.81,178.61 L 1619.88,180.98 L 1621.69,186.13 L 1622.53,188.76 L 1623.86,194.32 L 1624.47,197.14 L 1625.34,203.00 L 1625.71,205.95 L 1626.09,211.97 L 1626.23,214.99 L 1626.13,221.04 L 1626.02,224.07 L 1625.43,230.03 L 1625.08,233.00 L 1624.00,238.75 L 1621.81,247.00 L 1621.18,248.96 L 1619.70,252.78 L 1618.93,254.68 L 1617.18,258.37 L 1616.27,260.19 L 1614.26,263.73 L 1613.22,265.47 L 1610.96,268.85 L 1609.80,270.51 L 1607.32,273.71 L 1606.05,275.28 L 1603.36,278.29 L 1601.98,279.76 L 1599.09,282.57 L 1597.62,283.94 L 1594.55,286.53 L 1592.99,287.80 L 1589.75,290.16 L 1588.11,291.31 L 1584.72,293.43 L 1583.01,294.46 L 1579.49,296.33 L 1577.71,297.23 L 1574.07,298.84 L 1572.24,299.60 L 1568.50,300.93 L 1566.61,301.55 L 1562.78,302.59 L 1560.86,303.07 L 1556.96,303.79 L 1551.04,304.53 L 1549.49,304.66 L 1546.89,304.88 L 1545.66,304.98 L 1543.62,305.13 L 1542.66,305.21 L 1541.06,305.31 L 1540.31,305.36 L 1539.05,305.43 L 1537.85,305.48 L 1535.97,305.47 L 1535.03,305.45 L 1533.00,305.32 L 1530.56,305.16 L 1525.81,304.62 L 1523.46,304.31 L 1518.88,303.48 L 1516.62,303.03 L 1512.22,301.92 L 1510.04,301.32 L 1505.83,299.93 L 1503.74,299.20 L 1499.72,297.53 L 1497.73,296.66 L 1493.91,294.73 L 1492.02,293.72 L 1488.40,291.52 L 1486.62,290.39 L 1483.21,287.93 L 1481.54,286.67 L 1478.35,283.95 L 1476.78,282.56 L 1473.81,279.60 L 1472.36,278.09 L 1469.63,274.88 L 1468.29,273.24 L 1465.79,269.79 L 1464.58,268.04 L 1462.32,264.36 L 1461.23,262.49 L 1459.23,258.57 L 1458.26,256.59 L 1456.52,252.45 L 1454.20,246.00 L 1453.58,244.08 L 1452.56,239.90 L 1452.08,237.77 L 1451.33,233.27 L 1450.99,230.99 L 1450.53,226.27 L 1450.33,223.89 L 1450.14,219.07 L 1450.08,216.65 L 1450.19,211.82 L 1450.27,209.42 L 1450.66,204.70 L 1450.89,202.37 L 1451.57,197.87 L 1452.92,191.50 L 1453.25,190.22 L 1454.10,187.51 L 1454.55,186.13 L 1455.63,183.27 L 1456.75,180.39 L 1459.48,174.55 L 1460.90,171.67 L 1464.00,166.32 L 1464.78,165.04 L 1466.36,162.68 L 1468.70,159.53 L 1470.05,157.87 L 1473.02,154.67 L 1474.54,153.09 L 1477.84,150.08 L 1479.52,148.61 L 1483.10,145.82 L 1484.91,144.45 L 1488.72,141.91 L 1490.65,140.68 L 1494.65,138.42 L 1496.66,137.33 L 1500.80,135.38 L 1502.88,134.45 L 1507.11,132.85 L 1513.50,130.85 L 1515.03,130.45 L 1518.45,129.77 L 1520.21,129.45 L 1524.01,128.95 L 1527.87,128.50 L 1536.16,128.14 L 1540.30,128.06 M 1287.58,129.85 L 1288.58,129.91 L 1290.56,130.28 L 1291.54,130.50 L 1293.43,131.17 L 1294.36,131.54 L 1296.11,132.51 L 1296.95,133.02 L 1298.49,134.26 L 1300.50,136.41 L 1300.59,136.52 L 1300.87,137.01 L 1301.04,137.29 L 1301.48,138.11 L 1301.72,138.56 L 1302.31,139.71 L 1302.62,140.32 L 1303.35,141.76 L 1303.73,142.52 L 1304.58,144.25 L 1305.03,145.14 L 1306.00,147.14 L 1307.01,149.19 L 1309.33,154.01 L 1310.54,156.52 L 1313.22,162.14 L 1314.60,165.04 L 1317.57,171.32 L 1319.08,174.53 L 1322.27,181.32 L 1327.20,191.90 L 1328.87,195.50 L 1332.10,202.42 L 1333.69,205.82 L 1336.70,212.24 L 1338.17,215.37 L 1340.91,221.14 L 1342.23,223.93 L 1344.61,228.91 L 1345.18,230.10 L 1346.24,232.30 L 1346.76,233.37 L 1347.71,235.33 L 1348.17,236.28 L 1349.00,237.97 L 1349.40,238.78 L 1350.10,240.20 L 1350.44,240.86 L 1351.00,241.97 L 1351.27,242.49 L 1351.68,243.28 L 1351.87,243.64 L 1352.14,244.09 L 1352.35,244.37 L 1352.38,244.38 L 1352.56,244.12 L 1352.67,243.94 L 1353.01,243.34 L 1353.20,242.99 L 1353.68,242.06 L 1353.94,241.56 L 1354.56,240.32 L 1354.89,239.66 L 1355.64,238.13 L 1356.03,237.33 L 1356.91,235.53 L 1357.36,234.60 L 1358.35,232.54 L 1358.86,231.48 L 1359.95,229.19 L 1361.07,226.84 L 1363.58,221.50 L 1364.88,218.74 L 1367.71,212.68 L 1369.15,209.58 L 1372.22,202.94 L 1377.02,192.50 L 1378.66,188.92 L 1381.85,181.99 L 1383.43,178.56 L 1386.44,172.05 L 1387.92,168.85 L 1390.68,162.91 L 1392.03,160.02 L 1394.47,154.80 L 1395.65,152.29 L 1397.71,147.94 L 1398.19,146.91 L 1399.08,145.05 L 1399.51,144.15 L 1400.27,142.56 L 1400.64,141.80 L 1401.27,140.50 L 1401.57,139.89 L 1402.07,138.90 L 1402.30,138.44 L 1402.64,137.77 L 1402.99,137.17 L 1403.47,136.41 L 1404.72,135.06 L 1405.39,134.41 L 1406.96,133.28 L 1407.77,132.74 L 1409.59,131.84 L 1410.53,131.43 L 1412.53,130.78 L 1413.54,130.50 L 1415.66,130.13 L 1416.72,129.99 L 1418.88,129.92 L 1419.96,129.92 L 1422.10,130.16 L 1425.20,130.90 L 1426.21,131.23 L 1428.36,132.52 L 1429.43,133.24 L 1431.50,135.09 L 1432.50,136.06 L 1434.18,138.17 L 1435.94,141.32 L 1436.25,142.15 L 1436.68,143.70 L 1436.85,144.50 L 1436.82,146.40 L 1436.77,146.92 L 1436.56,148.12 L 1436.43,148.75 L 1436.02,150.23 L 1435.80,151.01 L 1435.18,152.83 L 1434.84,153.78 L 1433.98,156.01 L 1433.52,157.18 L 1432.39,159.88 L 1431.79,161.30 L 1430.36,164.55 L 1429.61,166.25 L 1427.86,170.11 L 1426.95,172.12 L 1424.85,176.66 L 1423.76,179.03 L 1421.29,184.32 L 1420.00,187.06 L 1417.13,193.17 L 1415.64,196.33 L 1412.33,203.32 L 1411.48,205.12 L 1409.69,208.91 L 1406.87,214.87 L 1405.77,217.19 L 1403.65,221.65 L 1402.61,223.85 L 1400.62,228.05 L 1398.66,232.19 L 1395.07,239.76 L 1393.33,243.43 L 1390.17,250.08 L 1388.64,253.30 L 1385.87,259.11 L 1384.53,261.92 L 1382.13,266.94 L 1380.97,269.35 L 1378.91,273.65 L 1377.92,275.71 L 1376.16,279.33 L 1375.31,281.07 L 1373.83,284.08 L 1373.13,285.52 L 1371.89,287.99 L 1371.31,289.16 L 1370.29,291.14 L 1369.81,292.07 L 1368.99,293.62 L 1368.60,294.35 L 1367.93,295.53 L 1367.62,296.08 L 1367.08,296.95 L 1366.83,297.36 L 1366.39,297.98 L 1365.33,299.21 L 1364.67,299.80 L 1363.16,300.83 L 1362.37,301.31 L 1360.65,302.12 L 1358.89,302.86 L 1355.02,303.67 L 1353.07,303.94 L 1349.22,303.75 L 1348.29,303.63 L 1346.52,303.20 L 1345.65,302.95 L 1344.07,302.25 L 1343.60,302.01 L 1342.52,301.29 L 1341.98,300.91 L 1340.85,299.99 L 1337.91,297.00 L 1337.81,296.88 L 1337.46,296.28 L 1337.25,295.92 L 1336.68,294.87 L 1336.37,294.29 L 1335.60,292.80 L 1335.19,292.01 L 1334.23,290.12 L 1333.72,289.12 L 1332.58,286.85 L 1331.99,285.67 L 1330.69,283.05 L 1330.02,281.70 L 1328.56,278.74 L 1327.82,277.22 L 1326.22,273.97 L 1325.41,272.30 L 1323.68,268.76 L 1322.80,266.96 L 1320.96,263.17 L 1319.10,259.32 L 1315.07,250.96 L 1313.02,246.68 L 1308.69,237.63 L 1301.96,223.50 L 1300.29,220.00 L 1297.20,213.46 L 1295.69,210.27 L 1292.88,204.34 L 1291.52,201.45 L 1289.00,196.10 L 1287.77,193.49 L 1285.52,188.68 L 1284.42,186.34 L 1282.43,182.05 L 1281.46,179.97 L 1279.70,176.17 L 1278.85,174.33 L 1277.32,170.98 L 1276.59,169.36 L 1275.27,166.45 L 1274.64,165.04 L 1273.53,162.52 L 1273.00,161.31 L 1272.07,159.16 L 1271.63,158.13 L 1270.88,156.33 L 1270.53,155.46 L 1269.94,153.96 L 1269.67,153.25 L 1269.23,152.03 L 1269.03,151.45 L 1268.72,150.48 L 1268.26,148.38 L 1268.18,147.58 L 1268.13,146.19 L 1268.12,145.53 L 1268.20,144.44 L 1268.25,143.94 L 1268.45,143.21 L 1268.89,142.57 L 1269.19,142.38 L 1269.67,141.57 L 1270.00,140.13 L 1270.00,139.86 L 1270.19,139.24 L 1270.32,138.92 L 1270.74,138.21 L 1271.22,137.48 L 1272.72,135.90 L 1273.54,135.10 L 1275.55,133.55 L 1278.88,131.52 L 1279.76,131.07 L 1281.65,130.45 L 1282.60,130.18 L 1284.58,129.90 L 1285.57,129.80 M 1535.44,163.48 L 1529.65,164.19 L 1526.77,164.65 L 1521.22,166.15 L 1519.87,166.57 L 1517.27,167.54 L 1513.60,169.20 L 1512.85,169.58 L 1511.26,170.59 L 1510.45,171.12 L 1508.78,172.39 L 1507.09,173.72 L 1503.71,176.95 L 1502.05,178.63 L 1499.04,182.23 L 1495.41,187.59 L 1494.70,188.87 L 1493.47,191.21 L 1492.90,192.36 L 1491.92,194.52 L 1491.01,196.67 L 1489.83,200.90 L 1489.58,201.99 L 1489.20,204.31 L 1489.04,205.50 L 1488.81,208.10 L 1488.71,209.44 L 1488.60,212.44 L 1488.55,217.50 L 1488.55,219.00 L 1488.57,221.54 L 1488.58,222.74 L 1488.64,224.77 L 1488.67,225.74 L 1488.77,227.39 L 1488.83,228.18 L 1489.01,229.57 L 1489.20,230.92 L 1489.87,233.34 L 1491.43,237.50 L 1492.33,239.69 L 1494.13,243.42 L 1495.04,245.21 L 1497.04,248.38 L 1498.08,249.92 L 1500.48,252.81 L 1504.74,257.17 L 1506.14,258.47 L 1509.16,260.80 L 1510.71,261.92 L 1513.99,263.85 L 1515.66,264.76 L 1519.17,266.29 L 1520.95,267.00 L 1524.65,268.11 L 1526.52,268.61 L 1530.38,269.29 L 1532.33,269.58 L 1536.30,269.83 L 1538.30,269.90 L 1542.36,269.71 L 1544.40,269.56 L 1548.51,268.91 L 1550.75,268.50 L 1555.08,267.16 L 1557.22,266.40 L 1561.31,264.42 L 1563.32,263.36 L 1567.11,260.80 L 1568.96,259.46 L 1572.39,256.38 L 1574.05,254.79 L 1577.06,251.25 L 1578.50,249.43 L 1581.02,245.49 L 1582.21,243.48 L 1584.19,239.20 L 1586.47,232.46 L 1586.71,231.51 L 1587.11,229.27 L 1587.30,228.11 L 1587.58,225.51 L 1587.82,222.85 L 1587.95,217.01 L 1587.95,214.09 L 1587.58,208.49 L 1587.46,207.15 L 1587.12,204.69 L 1586.48,201.46 L 1585.85,198.97 L 1584.10,194.25 L 1583.15,191.93 L 1580.82,187.61 L 1579.58,185.50 L 1576.72,181.62 L 1575.22,179.74 L 1571.87,176.35 L 1570.13,174.73 L 1566.35,171.88 L 1564.41,170.53 L 1560.24,168.28 L 1558.11,167.23 L 1553.62,165.62 L 1546.56,163.97 L 1543.94,163.57 L 1538.30,163.43 Z" fill="rgba(65,158,238,1)"/>
<path d="M 728.00,335.57 L 726.41,335.12 L 723.24,333.92 L 721.66,333.26 L 718.56,331.66 L 717.02,330.82 L 714.03,328.89 L 712.56,327.88 L 709.75,325.67 L 708.38,324.52 L 705.82,322.07 L 704.58,320.82 L 702.32,318.18 L 701.24,316.85 L 699.36,314.07 L 697.01,309.83 L 696.16,308.02 L 694.83,304.67 L 694.53,303.88 L 694.04,302.42 L 693.81,301.71 L 693.47,300.48 L 693.32,299.89 L 693.15,298.93 L 693.08,298.49 L 693.09,297.85 L 693.12,297.58 L 693.32,297.32 L 693.84,297.40 L 694.16,297.60 L 694.66,298.60 L 695.00,300.46 L 695.00,300.77 L 695.16,301.59 L 695.26,302.04 L 695.59,303.09 L 695.95,304.17 L 697.04,306.67 L 697.63,307.92 L 698.92,310.24 L 699.24,310.78 L 699.87,311.72 L 700.75,312.82 L 701.09,313.18 L 701.64,313.95 L 702.02,314.82 L 702.02,314.91 L 702.45,315.53 L 702.72,315.89 L 703.58,316.95 L 704.06,317.52 L 705.26,318.88 L 707.30,321.11 L 707.97,321.81 L 709.60,323.28 L 710.46,324.02 L 712.41,325.51 L 714.40,326.98 L 718.81,329.67 L 719.90,330.30 L 722.04,331.41 L 723.10,331.93 L 725.06,332.78 L 726.01,333.16 L 727.69,333.68 L 729.73,334.00 L 730.29,334.00 L 731.53,334.44 L 733.00,335.50 L 733.36,335.94 L 733.68,336.48 L 733.75,336.70 L 733.31,336.82 L 733.14,336.82 L 732.62,336.75 L 732.32,336.69 L 731.53,336.51 L 731.10,336.41 L 730.01,336.12 L 729.42,335.96 M 746.95,335.56 L 747.30,335.13 L 748.45,334.46 L 750.23,334.00 L 750.50,334.00 L 751.64,333.70 L 752.29,333.50 L 754.02,332.87 L 754.93,332.52 L 757.03,331.64 L 760.35,330.15 L 762.79,328.99 L 767.21,326.21 L 769.34,324.74 L 773.09,321.38 L 774.88,319.63 L 777.91,315.74 L 781.57,309.40 L 782.31,307.78 L 783.75,304.69 L 784.08,303.99 L 784.62,302.84 L 785.20,301.66 L 785.32,301.41 L 785.56,300.15 L 785.67,299.41 L 785.85,297.38 L 785.94,296.29 L 786.06,293.76 L 786.13,289.66 L 786.13,288.57 L 786.11,286.67 L 786.10,285.75 L 786.04,284.16 L 785.97,282.62 L 785.66,280.15 L 785.47,278.96 L 784.85,276.73 L 783.46,273.00 L 782.71,271.18 L 781.31,268.17 L 780.60,266.74 L 779.09,264.20 L 778.29,262.94 L 776.39,260.44 L 772.82,256.27 L 771.77,255.11 L 770.12,252.90 L 769.78,252.39 L 769.30,251.57 L 769.00,250.72 L 769.00,250.57 L 769.23,249.72 L 769.38,249.22 L 769.87,247.78 L 770.14,247.00 L 770.82,245.11 L 771.19,244.13 L 772.02,241.94 L 772.88,239.70 L 774.79,234.93 L 775.27,233.76 L 776.20,231.53 L 777.52,228.50 L 777.70,228.09 L 778.24,226.74 L 778.53,226.00 L 779.23,224.18 L 781.46,218.00 L 782.18,215.94 L 783.70,211.82 L 784.06,210.87 L 784.69,209.26 L 785.42,207.50 L 785.83,206.58 L 786.83,204.30 L 787.35,203.13 L 788.42,200.64 L 788.95,199.42 L 789.91,197.16 L 791.02,194.50 L 791.13,194.22 L 791.55,193.09 L 791.78,192.45 L 792.39,190.74 L 792.71,189.83 L 793.42,187.76 L 794.54,184.50 L 794.91,183.40 L 795.81,180.92 L 796.28,179.66 L 797.29,177.09 L 797.80,175.82 L 798.79,173.47 L 800.12,170.51 L 800.51,169.69 L 801.24,168.11 L 801.58,167.34 L 802.15,165.97 L 802.41,165.33 L 802.77,164.34 L 803.00,163.45 L 803.00,163.27 L 803.21,162.43 L 803.34,161.95 L 803.77,160.66 L 804.24,159.29 L 805.55,155.91 L 806.21,154.23 L 807.51,151.26 L 807.80,150.61 L 808.30,149.62 L 808.84,148.76 L 809.20,148.40 L 810.09,148.26 L 810.57,148.29 L 811.71,148.93 L 812.31,149.35 L 813.70,150.78 L 816.07,153.81 L 816.99,155.10 L 818.61,157.27 L 818.97,157.74 L 819.53,158.44 L 820.04,159.00 L 820.12,159.07 L 820.57,159.63 L 820.84,159.97 L 821.57,160.97 L 821.96,161.51 L 822.87,162.82 L 824.35,165.00 L 825.36,166.51 L 827.67,169.77 L 828.23,170.54 L 829.26,171.90 L 830.52,173.50 L 830.86,173.91 L 831.86,175.19 L 832.40,175.89 L 833.68,177.58 L 837.76,183.17 L 839.37,185.43 L 842.18,189.37 L 843.52,191.25 L 845.81,194.47 L 846.90,196.00 L 848.74,198.55 L 849.60,199.75 L 851.01,201.71 L 851.67,202.62 L 852.71,204.04 L 853.19,204.68 L 853.91,205.63 L 854.23,206.05 L 854.66,206.59 L 855.04,207.00 L 855.13,207.07 L 855.58,207.63 L 855.84,207.97 L 856.58,208.97 L 856.97,209.51 L 857.89,210.82 L 859.38,213.00 L 860.40,214.51 L 862.72,217.77 L 863.28,218.54 L 864.30,219.90 L 865.54,221.50 L 865.96,222.01 L 867.01,223.35 L 867.57,224.06 L 868.87,225.76 L 869.54,226.65 L 871.03,228.65 L 871.80,229.67 L 873.43,231.89 L 875.09,234.16 L 878.64,239.08 L 883.88,246.50 L 884.65,247.60 L 886.20,249.76 L 886.96,250.82 L 888.38,252.74 L 889.06,253.64 L 890.18,255.09 L 891.36,256.50 L 891.62,256.77 L 892.30,257.59 L 892.66,258.04 L 893.47,259.09 L 895.88,262.52 L 896.56,263.56 L 898.33,266.11 L 899.24,267.41 L 901.12,270.00 L 902.04,271.25 L 903.59,273.27 L 903.94,273.71 L 904.49,274.39 L 905.05,275.00 L 905.13,275.07 L 905.66,275.75 L 905.98,276.16 L 906.90,277.41 L 907.40,278.09 L 908.58,279.74 L 910.54,282.50 L 911.22,283.46 L 912.53,285.30 L 913.17,286.19 L 914.31,287.76 L 914.85,288.49 L 915.69,289.60 L 916.48,290.57 L 916.62,290.72 L 917.07,291.27 L 917.32,291.59 L 917.93,292.39 L 919.98,295.27 L 920.70,296.32 L 922.17,297.94 L 922.91,298.67 L 924.53,299.71 L 925.37,300.16 L 927.28,300.70 L 930.61,301.00 L 932.03,301.00 L 934.71,300.35 L 936.01,299.93 L 938.28,298.54 L 939.35,297.76 L 941.03,295.79 L 942.64,292.32 L 942.80,291.68 L 943.31,290.68 L 944.11,290.00 L 944.35,290.00 L 944.74,289.47 L 945.00,288.20 L 945.00,287.71 L 945.24,286.65 L 945.83,285.45 L 945.95,285.32 L 946.25,284.73 L 946.42,284.38 L 946.79,283.46 L 947.93,280.00 L 948.10,279.38 L 948.66,277.70 L 948.96,276.81 L 949.70,274.77 L 952.20,268.50 L 953.03,266.57 L 954.71,262.67 L 955.10,261.77 L 955.77,260.22 L 956.50,258.50 L 956.68,258.09 L 957.30,256.55 L 957.65,255.68 L 958.52,253.44 L 958.98,252.27 L 959.99,249.62 L 961.56,245.50 L 962.08,244.12 L 963.17,241.36 L 963.71,240.00 L 964.76,237.47 L 965.27,236.27 L 966.16,234.28 L 967.17,232.22 L 967.67,231.32 L 968.46,229.47 L 968.63,229.04 L 968.86,228.30 L 969.00,227.47 L 969.00,227.07 L 969.29,226.43 L 970.00,226.00 L 970.27,226.00 L 970.71,226.16 L 971.00,226.55 L 971.00,226.65 L 970.69,227.58 L 970.49,228.15 L 969.81,229.94 L 969.44,230.93 L 968.45,233.45 L 967.92,234.80 L 966.67,237.92 L 966.02,239.55 L 964.56,243.16 L 963.81,245.02 L 962.20,248.98 L 960.56,253.01 L 957.03,261.59 L 955.26,265.88 L 951.79,274.23 L 950.94,276.25 L 949.33,280.08 L 948.55,281.95 L 947.09,285.38 L 946.39,287.03 L 945.15,289.92 L 944.56,291.28 L 943.58,293.52 L 943.13,294.54 L 942.47,295.98 L 941.88,297.13 L 941.40,297.82 L 940.21,299.02 L 939.59,299.60 L 938.17,300.57 L 937.43,301.02 L 935.85,301.73 L 935.04,302.05 L 933.35,302.50 L 932.49,302.68 L 930.76,302.85 L 929.90,302.89 L 928.20,302.75 L 927.35,302.65 L 925.74,302.20 L 923.50,301.16 L 923.34,301.06 L 922.82,300.58 L 922.52,300.28 L 921.70,299.35 L 921.24,298.82 L 920.05,297.38 L 919.40,296.59 L 917.80,294.55 L 916.94,293.46 L 914.88,290.78 L 913.78,289.34 L 911.20,285.94 L 909.83,284.13 L 906.68,279.93 L 905.86,278.83 L 904.09,276.46 L 903.19,275.25 L 901.26,272.66 L 900.27,271.33 L 898.18,268.51 L 897.11,267.07 L 894.85,264.01 L 893.69,262.45 L 891.25,259.14 L 890.00,257.45 L 887.37,253.89 L 886.03,252.07 L 883.21,248.24 L 881.77,246.29 L 878.75,242.18 L 877.21,240.09 L 873.99,235.70 L 872.35,233.47 L 868.91,228.78 L 867.16,226.41 L 863.50,221.42 L 861.65,218.89 L 857.77,213.60 L 855.80,210.91 L 851.69,205.30 L 849.60,202.46 L 845.25,196.52 L 843.05,193.51 L 838.45,187.23 L 836.12,184.05 L 831.28,177.44 L 828.83,174.08 L 823.72,167.11 L 815.78,156.25 L 815.25,155.53 L 814.19,154.21 L 813.67,153.58 L 812.70,152.54 L 812.24,152.07 L 811.48,151.41 L 810.70,151.00 L 810.67,151.00 L 810.51,151.25 L 810.41,151.42 L 810.13,151.99 L 809.98,152.31 L 809.58,153.18 L 809.37,153.65 L 808.86,154.80 L 808.33,156.01 L 806.98,159.18 L 806.26,160.87 L 804.59,164.89 L 803.72,166.99 L 801.79,171.69 L 800.79,174.11 L 798.67,179.33 L 797.59,181.99 L 795.33,187.57 L 794.19,190.39 L 791.87,196.17 L 789.55,201.96 L 784.99,213.46 L 783.88,216.27 L 781.76,221.67 L 780.72,224.31 L 778.80,229.26 L 777.87,231.66 L 776.20,235.99 L 775.41,238.06 L 774.07,241.61 L 773.76,242.44 L 773.21,243.93 L 772.95,244.65 L 772.51,245.89 L 772.30,246.47 L 771.97,247.44 L 771.60,248.57 L 771.49,248.96 L 771.57,249.86 L 771.66,250.35 L 772.21,251.55 L 772.55,252.19 L 773.62,253.79 L 775.88,256.76 L 777.56,258.84 L 780.40,263.08 L 781.74,265.21 L 783.90,269.52 L 784.90,271.69 L 786.38,276.06 L 787.04,278.26 L 787.84,282.68 L 788.16,284.90 L 788.28,289.36 L 788.26,291.60 L 787.69,296.08 L 787.33,298.33 L 786.08,302.82 L 783.43,309.56 L 782.62,311.27 L 780.75,314.49 L 779.77,316.06 L 777.56,319.00 L 776.41,320.43 L 773.87,323.07 L 772.56,324.35 L 769.70,326.69 L 768.23,327.83 L 765.07,329.86 L 763.45,330.83 L 759.99,332.54 L 758.23,333.36 L 754.49,334.74 L 748.58,336.44 L 747.93,336.59 L 747.08,336.75 L 746.71,336.80 L 746.37,336.74 L 746.25,336.68 L 746.36,336.36 L 746.46,336.17 M 733.11,303.92 L 732.17,303.35 L 730.38,302.10 L 729.98,301.81 L 729.30,301.27 L 728.61,300.64 L 728.09,300.07 L 727.22,298.81 L 726.81,298.16 L 726.17,296.77 L 725.58,295.34 L 725.07,292.19 L 724.93,290.58 L 725.34,287.23 L 727.00,282.24 L 727.55,281.10 L 728.41,278.86 L 728.59,278.34 L 728.84,277.48 L 729.00,276.55 L 729.00,276.12 L 729.29,275.45 L 730.00,275.00 L 730.27,275.00 L 730.71,274.45 L 731.00,273.12 L 731.00,272.31 L 731.55,271.04 L 731.92,270.46 L 733.28,269.64 L 734.07,269.27 L 736.33,268.85 L 736.96,268.76 L 738.40,268.66 L 740.85,268.61 L 742.71,268.62 L 745.86,268.96 L 747.36,269.19 L 749.97,270.07 L 751.24,270.58 L 753.57,272.09 L 757.03,275.19 L 757.91,276.11 L 759.09,278.18 L 759.58,279.23 L 759.98,281.49 L 760.07,282.64 L 759.67,284.99 L 758.17,288.50 L 757.66,289.32 L 756.67,291.42 L 755.65,294.23 L 755.54,294.68 L 755.12,295.69 L 754.88,296.20 L 754.24,297.28 L 753.56,298.37 L 751.83,300.47 L 750.95,301.47 L 749.16,302.98 L 748.74,303.30 L 747.96,303.73 L 746.96,304.00 L 746.45,304.00 L 745.48,304.29 L 744.50,305.00 L 744.37,305.22 L 743.85,305.54 L 743.56,305.68 L 742.77,305.86 L 741.93,306.01 L 739.73,305.92 L 738.60,305.81 L 736.23,305.25 L 735.08,304.91 M 745.28,302.63 L 746.39,302.16 L 748.29,300.93 L 749.21,300.25 L 750.87,298.41 L 751.69,297.39 L 753.32,294.69 L 753.73,293.94 L 754.59,292.25 L 755.95,289.38 L 756.34,288.51 L 756.98,287.08 L 757.28,286.40 L 757.74,285.29 L 757.95,284.77 L 758.25,283.90 L 758.38,283.49 L 758.52,282.80 L 758.62,282.14 L 758.41,281.03 L 757.56,279.12 L 756.96,277.96 L 755.09,275.84 L 754.07,274.82 L 751.54,273.12 L 750.22,272.33 L 747.28,271.20 L 742.69,270.29 L 741.70,270.21 L 739.99,270.18 L 739.18,270.18 L 737.78,270.33 L 737.12,270.44 L 735.96,270.84 L 735.41,271.07 L 734.43,271.76 L 733.96,272.15 L 733.10,273.20 L 732.67,273.77 L 731.85,275.22 L 731.44,276.00 L 730.61,277.91 L 729.26,281.35 L 728.88,282.34 L 728.26,284.04 L 727.98,284.84 L 727.52,286.20 L 727.31,286.85 L 727.00,287.94 L 726.86,288.47 L 726.68,289.37 L 726.54,290.24 L 726.60,291.70 L 727.14,294.06 L 727.46,295.13 L 728.18,296.83 L 728.57,297.63 L 729.58,298.95 L 730.14,299.58 L 731.60,300.71 L 734.50,302.42 L 735.43,302.91 L 737.16,303.52 L 738.02,303.77 L 739.71,303.92 L 740.57,303.93 L 742.36,303.62 L 743.27,303.40 M 692.00,289.00 L 692.00,288.17 L 692.08,286.66 L 692.13,285.94 L 692.29,284.75 L 692.38,284.21 L 692.61,283.47 L 693.00,283.00 L 693.14,283.00 L 693.39,283.47 L 693.51,283.77 L 693.71,284.75 L 693.80,285.29 L 693.92,286.66 L 694.00,289.00 L 694.00,289.83 L 693.92,291.34 L 693.87,292.06 L 693.71,293.25 L 693.62,293.79 L 693.39,294.53 L 693.00,295.00 L 692.86,295.00 L 692.61,294.53 L 692.49,294.23 L 692.29,293.25 L 692.20,292.71 L 692.08,291.34 L 692.03,290.62 M 693.34,277.91 L 693.52,276.99 L 694.08,275.04 L 694.40,274.05 L 695.21,271.99 L 696.08,269.91 L 698.43,265.64 L 699.69,263.53 L 702.63,259.51 L 707.41,254.23 L 708.97,252.78 L 712.65,249.95 L 714.52,248.59 L 718.29,246.27 L 719.20,245.74 L 720.91,244.85 L 721.74,244.44 L 723.22,243.83 L 723.92,243.56 L 725.06,243.27 L 726.32,243.27 L 726.48,243.33 L 726.46,243.57 L 726.40,243.71 L 725.98,244.10 L 725.72,244.30 L 724.96,244.77 L 723.50,245.52 L 721.61,246.40 L 717.82,248.58 L 715.95,249.72 L 712.43,252.27 L 710.73,253.57 L 707.74,256.27 L 704.17,260.28 L 702.81,262.13 L 700.45,265.68 L 699.33,267.42 L 697.55,270.59 L 696.74,272.10 L 695.67,274.64 L 695.45,275.22 L 695.17,276.23 L 695.00,277.48 L 695.00,278.14 L 694.66,279.39 L 693.84,280.60 L 693.64,280.73 L 693.35,280.74 L 693.23,280.70 L 693.10,280.36 L 693.06,280.15 L 693.11,279.43 L 693.15,279.03 M 922.56,256.80 L 922.02,256.14 L 921.11,255.02 L 920.67,254.48 L 919.91,253.54 L 919.18,252.62 L 917.90,250.94 L 917.24,250.07 L 915.71,247.95 L 915.29,247.36 L 914.30,245.97 L 912.56,243.50 L 911.88,242.54 L 910.59,240.74 L 909.97,239.88 L 908.89,238.41 L 908.38,237.73 L 907.63,236.75 L 907.00,236.00 L 906.91,235.93 L 906.37,235.25 L 906.05,234.84 L 905.12,233.59 L 904.62,232.91 L 903.43,231.26 L 901.47,228.50 L 900.80,227.54 L 899.52,225.74 L 898.91,224.88 L 897.83,223.41 L 897.34,222.73 L 896.59,221.75 L 895.97,221.00 L 895.89,220.93 L 895.35,220.25 L 895.03,219.84 L 894.10,218.59 L 893.60,217.91 L 892.41,216.26 L 890.44,213.50 L 889.76,212.54 L 888.43,210.66 L 887.78,209.75 L 886.60,208.12 L 886.04,207.35 L 885.15,206.13 L 884.29,205.00 L 884.05,204.71 L 883.44,203.93 L 883.11,203.51 L 882.33,202.50 L 881.51,201.43 L 879.51,198.77 L 878.46,197.37 L 876.15,194.26 L 874.98,192.68 L 872.59,189.43 L 871.41,187.82 L 869.16,184.74 L 868.08,183.25 L 866.20,180.63 L 865.76,180.01 L 864.99,178.93 L 864.62,178.41 L 864.02,177.55 L 863.75,177.15 L 863.34,176.54 L 862.98,175.96 L 862.81,175.65 L 862.31,174.87 L 862.04,174.46 L 861.38,173.54 L 859.18,170.82 L 858.52,170.07 L 857.18,168.46 L 856.82,168.01 L 855.99,166.94 L 855.55,166.36 L 854.50,164.95 L 853.93,164.19 L 852.58,162.33 L 851.85,161.34 L 850.10,158.92 L 849.17,157.63 L 846.95,154.53 L 843.00,149.00 L 842.11,147.75 L 840.30,145.26 L 839.40,144.03 L 837.74,141.78 L 836.94,140.72 L 835.61,138.97 L 834.21,137.20 L 833.90,136.83 L 833.06,135.76 L 832.62,135.18 L 831.61,133.83 L 828.55,129.50 L 827.62,128.12 L 825.62,125.38 L 825.14,124.75 L 824.29,123.67 L 823.30,122.50 L 823.04,122.22 L 822.30,121.34 L 821.91,120.86 L 820.99,119.66 L 818.09,115.65 L 817.40,114.64 L 815.92,112.93 L 815.16,112.13 L 813.57,110.83 L 812.76,110.23 L 811.08,109.34 L 810.24,108.96 L 808.50,108.50 L 807.63,108.32 L 805.87,108.29 L 804.99,108.33 L 803.23,108.73 L 802.35,108.98 L 800.62,109.83 L 798.08,111.59 L 797.26,112.28 L 795.60,114.38 L 793.85,117.55 L 793.50,118.50 L 792.73,119.99 L 792.54,120.30 L 792.21,120.73 L 791.80,121.00 L 791.49,121.00 L 791.17,120.75 L 791.07,120.57 L 791.18,119.84 L 791.29,119.40 L 791.88,118.02 L 793.33,115.05 L 793.95,113.84 L 795.83,111.59 L 796.85,110.51 L 799.28,108.71 L 800.53,107.88 L 803.17,106.73 L 807.01,106.00 L 807.72,106.00 L 809.20,106.35 L 809.96,106.59 L 811.61,107.51 L 812.46,108.06 L 814.40,109.69 L 815.41,110.60 L 817.74,113.05 L 818.36,113.72 L 819.68,115.24 L 820.36,116.02 L 821.82,117.79 L 822.57,118.70 L 824.18,120.73 L 825.01,121.78 L 826.79,124.09 L 827.70,125.28 L 829.66,127.89 L 830.66,129.23 L 832.82,132.15 L 833.92,133.64 L 836.29,136.89 L 840.09,142.13 L 840.25,142.35 L 840.70,142.97 L 840.95,143.31 L 841.57,144.17 L 842.24,145.08 L 844.03,147.53 L 845.00,148.85 L 847.34,152.03 L 848.57,153.70 L 851.36,157.50 L 852.81,159.46 L 855.97,163.76 L 857.59,165.96 L 861.04,170.63 L 872.01,185.50 L 875.77,190.59 L 883.61,201.21 L 885.56,203.85 L 889.41,209.06 L 891.31,211.65 L 894.98,216.62 L 896.79,219.07 L 900.18,223.67 L 901.83,225.91 L 904.82,229.98 L 906.26,231.94 L 908.76,235.33 L 909.35,236.13 L 910.41,237.58 L 911.83,239.50 L 912.60,240.55 L 914.01,242.47 L 914.70,243.40 L 915.96,245.11 L 917.19,246.77 L 919.22,249.48 L 920.17,250.75 L 921.72,252.75 L 922.44,253.67 L 923.58,255.06 L 924.11,255.68 L 924.92,256.54 L 925.29,256.92 L 925.86,257.35 L 926.12,257.52 L 926.52,257.62 L 927.02,257.49 L 927.06,257.46 L 927.32,256.96 L 927.48,256.64 L 927.96,255.60 L 928.22,255.02 L 928.88,253.49 L 929.24,252.67 L 930.07,250.73 L 930.50,249.71 L 931.46,247.41 L 931.96,246.22 L 933.03,243.62 L 936.54,235.00 L 937.77,231.96 L 940.04,226.50 L 940.58,225.20 L 941.58,222.84 L 942.07,221.70 L 942.95,219.69 L 943.37,218.74 L 944.09,217.14 L 944.43,216.40 L 944.97,215.28 L 945.22,214.78 L 945.56,214.18 L 945.81,213.94 L 945.89,214.18 L 945.77,215.26 L 945.66,215.88 L 945.20,217.61 L 944.94,218.54 L 944.21,220.76 L 943.82,221.92 L 942.88,224.47 L 941.90,227.08 L 939.55,232.64 L 938.95,234.01 L 937.73,236.63 L 935.92,240.24 L 935.67,240.71 L 935.27,241.91 L 935.00,243.49 L 935.00,243.90 L 934.74,244.56 L 934.13,245.00 L 934.01,245.00 L 933.74,245.30 L 933.60,245.49 L 933.32,246.10 L 932.59,248.75 L 932.37,250.04 L 931.59,252.59 L 931.17,253.84 L 930.13,256.06 L 929.59,257.09 L 928.47,258.63 L 928.19,258.95 L 927.65,259.41 L 926.88,259.79 L 926.65,259.83 L 926.04,259.65 L 925.71,259.52 L 924.94,259.04 L 924.16,258.49 M 729.50,242.00 L 730.21,241.70 L 731.89,241.32 L 732.74,241.16 L 734.34,241.09 L 735.09,241.09 L 736.12,241.32 L 736.32,241.39 L 736.53,241.60 L 736.50,242.00 L 736.42,242.14 L 735.93,242.38 L 735.64,242.50 L 734.83,242.69 L 731.69,242.93 L 730.88,242.92 L 729.76,242.86 L 729.28,242.82 L 728.79,242.69 L 728.62,242.62 L 728.73,242.42 L 728.85,242.31 M 743.00,241.47 L 743.00,241.32 L 743.41,240.44 L 744.38,238.71 L 744.48,238.56 L 744.87,237.73 L 745.10,237.23 L 745.74,235.77 L 746.09,234.96 L 746.93,232.95 L 747.38,231.87 L 748.41,229.38 L 748.94,228.08 L 750.11,225.19 L 750.71,223.70 L 752.00,220.49 L 756.13,210.05 L 756.84,208.23 L 758.22,204.77 L 758.89,203.07 L 760.18,199.90 L 760.80,198.36 L 761.97,195.56 L 762.53,194.21 L 763.54,191.83 L 764.02,190.71 L 764.85,188.83 L 765.24,187.96 L 765.86,186.65 L 766.14,186.08 L 766.52,185.40 L 766.80,185.18 L 766.83,185.36 L 766.66,186.25 L 766.54,186.77 L 766.10,188.28 L 765.85,189.09 L 765.18,191.09 L 764.82,192.14 L 763.96,194.52 L 763.07,196.97 L 760.90,202.50 L 757.42,210.81 L 757.08,211.58 L 756.50,212.91 L 756.22,213.55 L 755.75,214.65 L 755.30,215.71 L 754.63,217.41 L 754.32,218.22 L 753.79,219.79 L 752.95,222.50 L 752.78,223.05 L 752.29,224.47 L 752.03,225.22 L 751.40,226.88 L 749.38,231.78 L 748.72,233.23 L 747.70,235.87 L 747.48,236.46 L 747.19,237.39 L 747.00,238.29 L 747.00,238.63 L 746.41,239.52 L 745.00,240.77 L 744.45,241.11 L 743.59,241.49 L 743.23,241.62 M 971.00,223.70 L 971.00,223.44 L 971.17,222.59 L 971.28,222.11 L 971.65,220.85 L 971.86,220.18 L 972.43,218.55 L 972.74,217.70 L 973.49,215.74 L 973.88,214.73 L 974.80,212.48 L 975.28,211.32 L 976.34,208.81 L 980.05,200.50 L 980.30,199.95 L 980.95,198.39 L 981.30,197.56 L 982.06,195.62 L 984.34,189.50 L 984.68,188.54 L 985.57,186.15 L 986.04,184.91 L 987.11,182.21 L 987.65,180.85 L 988.76,178.16 L 990.33,174.50 L 993.86,166.50 L 999.68,166.34 L 1005.50,166.18 L 1001.00,167.19 L 999.76,167.46 L 997.51,167.99 L 997.00,168.11 L 996.20,168.30 L 995.42,168.50 L 995.35,168.52 L 994.98,169.13 L 994.76,169.52 L 994.12,170.81 L 993.77,171.54 L 992.89,173.44 L 992.43,174.46 L 991.35,176.89 L 990.79,178.17 L 989.55,181.06 L 988.91,182.55 L 987.54,185.81 L 986.84,187.49 L 985.36,191.05 L 983.07,196.65 L 982.30,198.57 L 980.80,202.25 L 980.06,204.07 L 978.67,207.50 L 977.98,209.17 L 976.71,212.27 L 976.10,213.76 L 974.99,216.44 L 974.47,217.72 L 973.56,219.91 L 973.13,220.94 L 972.45,222.56 L 972.14,223.29 L 971.71,224.26 L 971.40,224.92 L 971.29,225.03 L 971.12,224.73 L 971.05,224.51 M 946.32,210.75 L 946.35,210.66 L 946.64,209.96 L 946.82,209.53 L 947.36,208.19 L 947.67,207.45 L 948.44,205.55 L 948.85,204.53 L 949.82,202.15 L 950.33,200.90 L 951.47,198.10 L 952.06,196.65 L 953.33,193.52 L 957.52,183.21 L 968.18,156.92 L 964.18,152.58 L 963.00,151.30 L 960.91,148.78 L 959.91,147.52 L 958.15,145.00 L 957.31,143.74 L 955.88,141.18 L 955.20,139.90 L 954.06,137.28 L 953.53,135.96 L 952.69,133.23 L 952.31,131.86 L 951.74,128.99 L 951.49,127.54 L 951.19,124.50 L 951.01,119.71 L 951.01,117.83 L 951.21,114.32 L 951.34,112.60 L 951.81,109.37 L 952.09,107.78 L 952.85,104.79 L 953.27,103.32 L 954.35,100.51 L 954.93,99.13 L 956.35,96.46 L 957.10,95.14 L 958.87,92.57 L 959.80,91.29 L 961.94,88.77 L 965.60,84.98 L 966.69,83.93 L 969.07,81.97 L 970.28,81.01 L 972.85,79.26 L 974.16,78.42 L 976.89,76.89 L 978.27,76.16 L 981.11,74.89 L 982.54,74.28 L 985.46,73.27 L 986.92,72.80 L 989.86,72.07 L 991.33,71.75 L 994.26,71.32 L 998.59,71.04 L 999.35,71.03 L 1001.16,71.18 L 1002.10,71.28 L 1004.20,71.62 L 1006.35,72.00 L 1011.06,73.20 L 1013.41,73.86 L 1017.90,75.44 L 1018.96,75.84 L 1020.91,76.69 L 1023.44,77.96 L 1025.07,78.90 L 1028.52,81.54 L 1030.24,82.95 L 1033.58,86.24 L 1035.19,87.93 L 1038.03,91.47 L 1038.68,92.35 L 1039.84,94.08 L 1041.27,96.58 L 1042.07,98.17 L 1043.27,100.80 L 1043.80,102.01 L 1044.44,103.80 L 1044.56,104.19 L 1044.70,104.80 L 1044.75,105.07 L 1044.74,105.44 L 1044.71,105.59 L 1044.54,105.70 L 1044.11,105.57 L 1043.80,105.38 L 1043.33,104.63 L 1043.00,103.35 L 1043.00,103.14 L 1042.59,102.16 L 1042.32,101.59 L 1041.46,100.04 L 1040.98,99.22 L 1039.79,97.30 L 1037.75,94.23 L 1036.26,92.08 L 1032.96,88.21 L 1031.26,86.36 L 1027.57,83.12 L 1025.69,81.59 L 1021.69,79.04 L 1015.44,76.06 L 1014.55,75.73 L 1012.31,75.18 L 1011.13,74.92 L 1008.44,74.52 L 1007.05,74.34 L 1004.06,74.10 L 1002.55,74.00 L 999.43,73.91 L 997.88,73.89 L 994.79,73.97 L 993.27,74.03 L 990.39,74.27 L 988.99,74.41 L 986.47,74.81 L 983.28,75.61 L 982.50,75.87 L 980.80,76.61 L 979.93,77.02 L 978.09,78.00 L 976.23,79.03 L 972.39,81.64 L 970.49,82.99 L 966.98,85.95 L 966.14,86.70 L 964.63,88.19 L 962.65,90.38 L 961.66,91.59 L 959.63,94.71 L 958.64,96.34 L 956.84,99.78 L 956.01,101.48 L 954.80,104.55 L 954.55,105.26 L 954.21,106.49 L 954.00,107.97 L 954.00,108.50 L 953.71,109.50 L 953.00,110.50 L 952.86,110.58 L 952.61,111.40 L 952.49,111.90 L 952.29,113.40 L 952.20,114.21 L 952.08,116.20 L 952.00,119.50 L 952.00,120.65 L 952.08,122.80 L 952.13,123.84 L 952.29,125.60 L 952.38,126.42 L 952.61,127.60 L 953.00,128.50 L 953.27,128.67 L 953.71,129.52 L 954.00,131.12 L 954.00,131.59 L 954.24,132.78 L 954.39,133.41 L 954.91,134.86 L 955.20,135.61 L 955.96,137.26 L 956.36,138.10 L 957.32,139.87 L 958.32,141.65 L 960.73,145.26 L 964.66,150.17 L 965.39,150.97 L 966.73,152.47 L 967.37,153.19 L 968.43,154.42 L 968.91,154.99 L 969.58,155.82 L 970.00,156.47 L 970.00,156.57 L 969.74,157.39 L 969.57,157.89 L 969.02,159.37 L 968.72,160.17 L 967.96,162.13 L 967.56,163.14 L 966.66,165.38 L 965.74,167.66 L 963.80,172.32 L 963.33,173.43 L 962.46,175.46 L 961.33,178.00 L 960.63,179.51 L 959.31,182.47 L 959.01,183.15 L 958.52,184.29 L 958.02,185.50 L 957.91,185.78 L 957.42,187.07 L 957.14,187.81 L 956.36,189.85 L 955.95,190.94 L 954.99,193.46 L 953.45,197.50 L 952.93,198.88 L 951.91,201.41 L 951.42,202.62 L 950.53,204.66 L 950.11,205.60 L 949.45,206.91 L 949.31,207.19 L 949.07,207.56 L 948.83,207.83 L 948.60,207.92 L 948.24,208.63 L 948.00,210.08 L 948.00,210.61 L 947.67,211.44 L 946.89,212.00 L 946.59,212.00 L 946.27,211.63 L 946.16,211.41 M 767.00,182.57 L 767.00,182.54 L 767.19,182.00 L 767.32,181.65 L 767.74,180.52 L 767.97,179.89 L 768.60,178.25 L 768.94,177.37 L 769.74,175.27 L 770.16,174.17 L 771.12,171.69 L 771.62,170.40 L 772.71,167.60 L 776.33,158.32 L 777.61,155.05 L 780.14,148.56 L 781.38,145.38 L 783.62,139.59 L 784.15,138.21 L 785.12,135.71 L 785.58,134.51 L 786.39,132.40 L 786.77,131.41 L 787.38,129.79 L 788.06,128.00 L 788.41,127.03 L 789.06,125.48 L 789.37,124.78 L 789.89,123.80 L 790.13,123.39 L 790.49,123.05 L 790.81,123.32 L 790.84,123.45 L 790.78,123.94 L 790.74,124.22 L 790.56,124.99 L 790.36,125.82 L 789.65,128.13 L 789.25,129.37 L 788.26,132.26 L 787.73,133.73 L 786.58,136.84 L 786.00,138.38 L 784.82,141.37 L 784.24,142.81 L 783.16,145.34 L 782.65,146.51 L 781.80,148.23 L 781.61,148.60 L 781.29,149.12 L 780.93,149.54 L 780.67,149.70 L 780.27,150.46 L 780.00,151.87 L 780.00,152.05 L 779.87,152.70 L 779.79,153.06 L 779.51,154.04 L 779.35,154.57 L 778.94,155.82 L 778.73,156.48 L 778.21,157.96 L 777.67,159.49 L 776.35,163.00 L 775.66,164.79 L 774.18,168.53 L 773.43,170.38 L 771.95,173.92 L 771.23,175.62 L 769.93,178.54 L 769.62,179.22 L 769.07,180.38 L 768.80,180.92 L 768.35,181.78 L 768.14,182.17 L 767.81,182.68 L 767.48,183.00 L 767.21,183.00 M 1007.50,165.80 L 1007.77,165.60 L 1008.63,165.14 L 1009.10,164.91 L 1010.23,164.41 L 1014.00,163.10 L 1015.99,162.53 L 1019.88,160.73 L 1021.82,159.72 L 1025.70,156.95 L 1026.67,156.19 L 1028.63,154.49 L 1029.62,153.60 L 1031.60,151.63 L 1032.60,150.61 L 1034.63,148.35 L 1037.73,144.66 L 1038.35,143.89 L 1039.59,141.97 L 1040.20,140.97 L 1041.29,138.89 L 1041.79,137.86 L 1042.52,136.02 L 1043.00,133.97 L 1043.00,133.43 L 1043.31,132.58 L 1044.07,132.00 L 1044.26,132.00 L 1044.52,132.17 L 1044.63,132.28 L 1044.73,132.65 L 1044.79,133.06 L 1044.49,134.41 L 1044.27,135.15 L 1043.48,137.02 L 1043.03,138.00 L 1041.85,140.22 L 1040.59,142.49 L 1037.34,147.32 L 1036.49,148.49 L 1034.74,150.68 L 1032.11,153.58 L 1031.39,154.30 L 1029.71,155.75 L 1028.85,156.47 L 1026.95,157.89 L 1025.01,159.29 L 1020.78,161.84 L 1018.65,163.04 L 1014.49,164.91 L 1013.49,165.33 L 1011.59,165.97 L 1009.00,166.61 L 1008.19,166.75 L 1007.14,166.91 L 1006.71,166.96 L 1006.34,166.91 L 1006.24,166.85 L 1006.50,166.56 L 1006.70,166.38 M 989.00,139.89 L 987.92,139.28 L 985.46,137.33 L 984.22,136.29 L 981.88,133.91 L 980.77,132.73 L 979.11,130.54 L 978.77,130.03 L 978.30,129.16 L 978.00,128.12 L 978.00,127.90 L 978.15,127.26 L 978.24,126.91 L 978.53,126.10 L 979.80,123.50 L 980.05,123.09 L 980.59,122.00 L 980.87,121.42 L 981.43,120.13 L 982.84,116.24 L 983.01,115.65 L 983.60,114.31 L 983.93,113.62 L 984.75,112.21 L 985.17,111.50 L 986.12,110.18 L 987.58,108.49 L 988.40,107.67 L 989.66,106.56 L 990.28,106.08 L 991.52,105.52 L 992.18,105.29 L 993.91,105.08 L 994.39,105.05 L 995.54,105.02 L 997.60,105.00 L 998.68,105.00 L 1000.56,105.07 L 1001.46,105.12 L 1003.05,105.32 L 1003.81,105.44 L 1005.15,105.79 L 1005.80,105.99 L 1006.95,106.53 L 1007.51,106.83 L 1008.54,107.59 L 1009.05,108.00 L 1010.01,109.00 L 1010.49,109.54 L 1011.44,110.83 L 1012.92,113.11 L 1013.64,114.28 L 1014.48,116.72 L 1014.80,117.97 L 1014.85,120.68 L 1014.78,122.08 L 1014.03,125.20 L 1012.00,130.50 L 1011.59,131.40 L 1010.84,133.12 L 1010.48,133.95 L 1009.88,135.40 L 1009.61,136.07 L 1009.24,137.09 L 1009.00,137.97 L 1009.00,138.48 L 1008.40,139.38 L 1008.01,139.81 L 1006.76,140.51 L 1006.07,140.83 L 1004.33,141.32 L 1003.41,141.54 L 1001.35,141.80 L 1000.30,141.90 L 998.09,141.92 L 996.98,141.90 L 994.77,141.66 L 993.69,141.51 L 991.66,140.99 L 990.69,140.70 M 1005.28,138.75 L 1005.52,138.57 L 1006.10,137.86 L 1006.40,137.46 L 1007.06,136.38 L 1007.74,135.23 L 1009.18,132.22 L 1009.89,130.67 L 1011.12,127.42 L 1011.40,126.63 L 1011.86,125.13 L 1012.35,123.11 L 1012.59,121.87 L 1012.60,119.46 L 1012.52,118.28 L 1011.96,116.04 L 1011.61,114.95 L 1010.55,112.96 L 1009.97,112.00 L 1008.48,110.32 L 1007.69,109.53 L 1005.85,108.24 L 1004.89,107.65 L 1002.77,106.82 L 1001.68,106.47 L 999.35,106.17 L 995.69,106.40 L 994.26,106.67 L 991.81,107.71 L 990.64,108.34 L 988.59,110.23 L 988.09,110.77 L 987.15,112.03 L 986.68,112.69 L 985.78,114.23 L 985.33,115.03 L 984.45,116.86 L 983.14,119.96 L 982.76,120.91 L 982.15,122.49 L 981.86,123.24 L 981.41,124.48 L 981.21,125.07 L 980.92,126.03 L 980.79,126.49 L 980.65,127.25 L 980.54,127.98 L 980.71,129.12 L 981.46,130.93 L 981.85,131.68 L 983.06,133.23 L 983.73,133.99 L 985.37,135.45 L 986.22,136.16 L 988.14,137.42 L 991.15,138.93 L 991.58,139.10 L 992.66,139.38 L 993.24,139.50 L 994.54,139.69 L 995.87,139.85 L 998.78,139.90 L 1000.21,139.88 L 1002.74,139.58 L 1003.31,139.49 L 1004.26,139.23 L 1004.69,139.09 M 1044.82,129.49 L 1044.72,129.33 L 1044.57,128.28 L 1044.50,127.65 L 1044.39,125.87 L 1044.35,124.91 L 1044.29,122.65 L 1044.27,121.48 L 1044.26,119.02 L 1044.26,117.79 L 1044.30,115.40 L 1044.32,114.23 L 1044.41,112.17 L 1044.46,111.20 L 1044.59,109.74 L 1044.84,108.51 L 1044.96,108.30 L 1045.20,108.20 L 1045.32,108.20 L 1045.56,108.48 L 1045.67,108.67 L 1045.89,109.29 L 1045.99,109.64 L 1046.18,110.56 L 1046.37,111.55 L 1046.63,114.24 L 1046.80,119.00 L 1046.80,120.72 L 1046.63,123.78 L 1046.52,125.22 L 1046.18,127.45 L 1046.09,127.94 L 1045.88,128.71 L 1045.77,129.06 L 1045.55,129.52 L 1045.43,129.70 L 1045.19,129.79 L 1045.07,129.79 Z" fill="rgba(69,117,167,1)"/>
</g>
</svg>